<?xml version="1.0" encoding="UTF-8"?>
<svg width="375px" height="2229px" viewBox="0 0 375 2229" version="1.1" xmlns="http://www.w3.org/2000/svg" xmlns:xlink="http://www.w3.org/1999/xlink">
    <!-- Generator: Sketch 48.1 (47250) - http://www.bohemiancoding.com/sketch -->
    <title>Road Map Mobile</title>
    <desc>Created with Sketch.</desc>
    <defs>
        <filter x="-5.2%" y="-9.9%" width="110.3%" height="127.8%" filterUnits="objectBoundingBox" id="filter-1">
            <feOffset dx="0" dy="5" in="SourceAlpha" result="shadowOffsetOuter1"></feOffset>
            <feGaussianBlur stdDeviation="5" in="shadowOffsetOuter1" result="shadowBlurOuter1"></feGaussianBlur>
            <feColorMatrix values="0 0 0 0 0   0 0 0 0 0   0 0 0 0 0  0 0 0 0.5 0" type="matrix" in="shadowBlurOuter1" result="shadowMatrixOuter1"></feColorMatrix>
            <feMerge>
                <feMergeNode in="shadowMatrixOuter1"></feMergeNode>
                <feMergeNode in="SourceGraphic"></feMergeNode>
            </feMerge>
        </filter>
        <filter x="-5.1%" y="-10.0%" width="110.3%" height="128.0%" filterUnits="objectBoundingBox" id="filter-2">
            <feOffset dx="0" dy="5" in="SourceAlpha" result="shadowOffsetOuter1"></feOffset>
            <feGaussianBlur stdDeviation="5" in="shadowOffsetOuter1" result="shadowBlurOuter1"></feGaussianBlur>
            <feColorMatrix values="0 0 0 0 0   0 0 0 0 0   0 0 0 0 0  0 0 0 0.5 0" type="matrix" in="shadowBlurOuter1" result="shadowMatrixOuter1"></feColorMatrix>
            <feMerge>
                <feMergeNode in="shadowMatrixOuter1"></feMergeNode>
                <feMergeNode in="SourceGraphic"></feMergeNode>
            </feMerge>
        </filter>
        <filter x="-5.2%" y="-10.0%" width="110.3%" height="128.0%" filterUnits="objectBoundingBox" id="filter-3">
            <feOffset dx="0" dy="5" in="SourceAlpha" result="shadowOffsetOuter1"></feOffset>
            <feGaussianBlur stdDeviation="5" in="shadowOffsetOuter1" result="shadowBlurOuter1"></feGaussianBlur>
            <feColorMatrix values="0 0 0 0 0   0 0 0 0 0   0 0 0 0 0  0 0 0 0.5 0" type="matrix" in="shadowBlurOuter1" result="shadowMatrixOuter1"></feColorMatrix>
            <feMerge>
                <feMergeNode in="shadowMatrixOuter1"></feMergeNode>
                <feMergeNode in="SourceGraphic"></feMergeNode>
            </feMerge>
        </filter>
        <filter x="-5.1%" y="-10.0%" width="110.3%" height="128.0%" filterUnits="objectBoundingBox" id="filter-4">
            <feOffset dx="0" dy="5" in="SourceAlpha" result="shadowOffsetOuter1"></feOffset>
            <feGaussianBlur stdDeviation="5" in="shadowOffsetOuter1" result="shadowBlurOuter1"></feGaussianBlur>
            <feColorMatrix values="0 0 0 0 0   0 0 0 0 0   0 0 0 0 0  0 0 0 0.5 0" type="matrix" in="shadowBlurOuter1" result="shadowMatrixOuter1"></feColorMatrix>
            <feMerge>
                <feMergeNode in="shadowMatrixOuter1"></feMergeNode>
                <feMergeNode in="SourceGraphic"></feMergeNode>
            </feMerge>
        </filter>
        <filter x="-5.2%" y="-10.0%" width="110.3%" height="128.0%" filterUnits="objectBoundingBox" id="filter-5">
            <feOffset dx="0" dy="5" in="SourceAlpha" result="shadowOffsetOuter1"></feOffset>
            <feGaussianBlur stdDeviation="5" in="shadowOffsetOuter1" result="shadowBlurOuter1"></feGaussianBlur>
            <feColorMatrix values="0 0 0 0 0   0 0 0 0 0   0 0 0 0 0  0 0 0 0.5 0" type="matrix" in="shadowBlurOuter1" result="shadowMatrixOuter1"></feColorMatrix>
            <feMerge>
                <feMergeNode in="shadowMatrixOuter1"></feMergeNode>
                <feMergeNode in="SourceGraphic"></feMergeNode>
            </feMerge>
        </filter>
        <filter x="-5.1%" y="-5.4%" width="110.3%" height="115.2%" filterUnits="objectBoundingBox" id="filter-6">
            <feOffset dx="0" dy="5" in="SourceAlpha" result="shadowOffsetOuter1"></feOffset>
            <feGaussianBlur stdDeviation="5" in="shadowOffsetOuter1" result="shadowBlurOuter1"></feGaussianBlur>
            <feColorMatrix values="0 0 0 0 0   0 0 0 0 0   0 0 0 0 0  0 0 0 0.5 0" type="matrix" in="shadowBlurOuter1" result="shadowMatrixOuter1"></feColorMatrix>
            <feMerge>
                <feMergeNode in="shadowMatrixOuter1"></feMergeNode>
                <feMergeNode in="SourceGraphic"></feMergeNode>
            </feMerge>
        </filter>
        <filter x="-5.1%" y="-10.0%" width="110.3%" height="128.0%" filterUnits="objectBoundingBox" id="filter-7">
            <feOffset dx="0" dy="5" in="SourceAlpha" result="shadowOffsetOuter1"></feOffset>
            <feGaussianBlur stdDeviation="5" in="shadowOffsetOuter1" result="shadowBlurOuter1"></feGaussianBlur>
            <feColorMatrix values="0 0 0 0 0   0 0 0 0 0   0 0 0 0 0  0 0 0 0.5 0" type="matrix" in="shadowBlurOuter1" result="shadowMatrixOuter1"></feColorMatrix>
            <feMerge>
                <feMergeNode in="shadowMatrixOuter1"></feMergeNode>
                <feMergeNode in="SourceGraphic"></feMergeNode>
            </feMerge>
        </filter>
        <filter x="-5.1%" y="-10.0%" width="110.3%" height="128.0%" filterUnits="objectBoundingBox" id="filter-8">
            <feOffset dx="0" dy="5" in="SourceAlpha" result="shadowOffsetOuter1"></feOffset>
            <feGaussianBlur stdDeviation="5" in="shadowOffsetOuter1" result="shadowBlurOuter1"></feGaussianBlur>
            <feColorMatrix values="0 0 0 0 0   0 0 0 0 0   0 0 0 0 0  0 0 0 0.5 0" type="matrix" in="shadowBlurOuter1" result="shadowMatrixOuter1"></feColorMatrix>
            <feMerge>
                <feMergeNode in="shadowMatrixOuter1"></feMergeNode>
                <feMergeNode in="SourceGraphic"></feMergeNode>
            </feMerge>
        </filter>
        <filter x="-5.2%" y="-10.0%" width="110.3%" height="128.0%" filterUnits="objectBoundingBox" id="filter-9">
            <feOffset dx="0" dy="5" in="SourceAlpha" result="shadowOffsetOuter1"></feOffset>
            <feGaussianBlur stdDeviation="5" in="shadowOffsetOuter1" result="shadowBlurOuter1"></feGaussianBlur>
            <feColorMatrix values="0 0 0 0 0   0 0 0 0 0   0 0 0 0 0  0 0 0 0.5 0" type="matrix" in="shadowBlurOuter1" result="shadowMatrixOuter1"></feColorMatrix>
            <feMerge>
                <feMergeNode in="shadowMatrixOuter1"></feMergeNode>
                <feMergeNode in="SourceGraphic"></feMergeNode>
            </feMerge>
        </filter>
        <filter x="-5.2%" y="-10.0%" width="110.3%" height="128.0%" filterUnits="objectBoundingBox" id="filter-10">
            <feOffset dx="0" dy="5" in="SourceAlpha" result="shadowOffsetOuter1"></feOffset>
            <feGaussianBlur stdDeviation="5" in="shadowOffsetOuter1" result="shadowBlurOuter1"></feGaussianBlur>
            <feColorMatrix values="0 0 0 0 0   0 0 0 0 0   0 0 0 0 0  0 0 0 0.5 0" type="matrix" in="shadowBlurOuter1" result="shadowMatrixOuter1"></feColorMatrix>
            <feMerge>
                <feMergeNode in="shadowMatrixOuter1"></feMergeNode>
                <feMergeNode in="SourceGraphic"></feMergeNode>
            </feMerge>
        </filter>
        <filter x="-5.2%" y="-10.0%" width="110.3%" height="128.0%" filterUnits="objectBoundingBox" id="filter-11">
            <feOffset dx="0" dy="5" in="SourceAlpha" result="shadowOffsetOuter1"></feOffset>
            <feGaussianBlur stdDeviation="5" in="shadowOffsetOuter1" result="shadowBlurOuter1"></feGaussianBlur>
            <feColorMatrix values="0 0 0 0 0   0 0 0 0 0   0 0 0 0 0  0 0 0 0.5 0" type="matrix" in="shadowBlurOuter1" result="shadowMatrixOuter1"></feColorMatrix>
            <feMerge>
                <feMergeNode in="shadowMatrixOuter1"></feMergeNode>
                <feMergeNode in="SourceGraphic"></feMergeNode>
            </feMerge>
        </filter>
    </defs>
    <g id="Page-1" stroke="none" stroke-width="1" fill="none" fill-rule="evenodd">
        <g id="Road-Map-Mobile">
            <path d="M75,89 L75,147.75568 C75,158.801375 83.954305,167.75568 95,167.75568 L284.88062,167.75568 C295.926315,167.75568 304.88062,176.709985 304.88062,187.75568 L304.88062,307.834915 C304.88062,318.88061 295.926315,327.834915 284.88062,327.834915 L95,327.834915 C83.954305,327.834915 75,336.78922 75,347.834915 L75,466.509841 C75,477.555536 83.954305,486.509841 95,486.509841 L284.88062,486.509841 C295.926315,486.509841 304.88062,495.464146 304.88062,506.509841 L304.88062,628.118822 C304.88062,639.164517 295.926315,648.118822 284.88062,648.118822 L95,648.118822 C83.954305,648.118822 75,657.073127 75,668.118822 L75,787.61466 C75,798.660355 83.954305,807.61466 95,807.61466 L284.974539,807.61466 C295.983488,807.61466 304.922499,816.511693 304.974318,827.520519 L305.999604,1045.33893 C306.103589,1067.43007 288.279473,1085.42278 266.188328,1085.52676 C266.125568,1085.52706 266.062808,1085.52721 266.000047,1085.52721 L95,1085.52721 C83.954305,1085.52721 75,1094.48151 75,1105.52721 L75,1227.60766 C75,1238.65335 83.954305,1247.60766 95,1247.60766 L284.88062,1247.60766 C295.926315,1247.60766 304.88062,1256.56196 304.88062,1267.60766 L304.88062,1387.76854 C304.88062,1398.81423 295.926315,1407.76854 284.88062,1407.76854 L95,1407.76854 C83.954305,1407.76854 75,1416.72284 75,1427.76854 L75,1548.23596 C75,1559.28166 83.954305,1568.23596 95,1568.23596 L284.88062,1568.23596 C295.926315,1568.23596 304.88062,1577.19027 304.88062,1588.23596 L304.88062,1649 L304.88062,1709.26187 C304.88062,1720.30756 295.926315,1729.26187 284.88062,1729.26187 L92.2370914,1729.26187 C82.7173087,1729.26187 75,1736.97918 75,1746.49896" id="Path" stroke="#1E9DF2" stroke-width="2"></path>
            <g id="1" filter="url(#filter-1)" transform="translate(20.000000, 25.000000)">
                <g id="element" fill-rule="nonzero">
                    <polygon id="Triangle" fill="#2B8ED1" transform="translate(68.640000, 86.240000) rotate(-30.000000) translate(-68.640000, -86.240000) " points="68.6399998 58.96 100.32 113.52 36.96 113.52"></polygon>
                    <polygon id="Triangle" fill="#2F9AE0" points="55 62.6800002 109.56 31 109.56 94.36"></polygon>
                    <polygon id="Triangle" fill="#2A8FD1" transform="translate(28.280000, 62.680000) scale(-1, 1) translate(-28.280000, -62.680000) " points="1 62.6800002 55.56 31 55.56 94.36"></polygon>
                    <polygon id="Triangle" fill="#2585C2" transform="translate(41.360000, 86.240000) scale(-1, 1) rotate(-30.000000) translate(-41.360000, -86.240000) " points="41.3599999 58.96 73.04 113.52 9.68 113.52"></polygon>
                    <polygon id="Triangle" fill="#2F9AE0" transform="translate(41.360000, 39.600000) rotate(150.000000) translate(-41.360000, -39.600000) " points="41.3599999 12.32 73.04 66.88 9.68 66.88"></polygon>
                    <polygon id="Triangle" fill="#209BF2" transform="translate(68.640000, 39.600000) scale(-1, 1) rotate(150.000000) translate(-68.640000, -39.600000) " points="68.64 12.32 100.32 66.88 36.96 66.88"></polygon>
                </g>
                <g id="light-bulb" transform="translate(55.200000, 62.580000) rotate(0.000000) translate(-55.200000, -62.580000) translate(35.200000, 36.080000)" fill="#FFFFFF" fill-rule="nonzero">
                    <path d="M15.0748559,45.8528896 C14.6237291,45.8528896 14.256,45.4854077 14.256,45.0324689 C14.256,44.5795305 14.6220123,44.2120482 15.0748559,44.2120482 L24.5741386,44.2120482 C25.0252654,44.2120482 25.3912776,44.5795305 25.3912776,45.0324689 C25.3912776,45.4854077 25.0252654,45.8528896 24.5741386,45.8528896 L15.0748559,45.8528896 Z" id="Shape"></path>
                    <path d="M16.0235391,49.0336125 C15.5724123,49.0336125 15.2064,48.6661302 15.2064,48.2131918 C15.2064,47.7602534 15.5741291,47.3927711 16.0235391,47.3927711 L23.4118627,47.3927711 C23.8629895,47.3927711 24.2290018,47.7602534 24.2290018,48.2131918 C24.2290018,48.6661302 23.8629895,49.0336125 23.4118627,49.0336125 L16.0235391,49.0336125 Z" id="Shape"></path>
                    <path d="M19.0498962,37.8834886 C19.0498962,38.3347699 18.6856008,38.700462 18.2361908,38.700462 C17.7867808,38.700462 17.4224854,38.3346372 17.4224854,37.8834886 C17.4190518,34.4291694 17.3203348,31.848308 16.8453706,29.4587787 C16.3755569,27.0966963 15.5345145,24.9071839 14.0416097,22.2065909 C13.823706,21.8117945 13.9650133,21.314371 14.3565797,21.0955921 C14.7498629,20.8768132 15.2452308,21.018688 15.4648513,21.411827 C17.0497379,24.2798853 17.9469071,26.6147198 18.4473593,29.139229 C18.9426612,31.6312528 19.0465286,34.3078465 19.0498962,37.8834886 Z" id="Shape"></path>
                    <path d="M22.2194109,37.884569 C22.2194109,38.3358503 21.8550493,38.7015425 21.4057054,38.7015425 C20.9563615,38.7015425 20.592,38.3357177 20.592,37.884569 C20.5954997,34.3087943 20.6992351,31.6339907 21.1946029,29.1403095 C21.6951212,26.6158003 22.5922904,24.2810984 24.177177,21.4129074 C24.3951467,21.0181111 24.8921654,20.8762363 25.2837978,21.0966726 C25.6770811,21.3154514 25.8165395,21.8145324 25.5987678,22.2076714 C24.105797,24.9081981 23.2648206,27.0995005 22.7949409,29.4598592 C22.3215615,31.8493885 22.2211937,34.4303161 22.2194109,37.884569 Z" id="Shape"></path>
                    <path d="M14.5055936,22.5904293 C14.0765873,22.4536593 13.8416475,21.9922348 13.9778703,21.5614393 C14.115744,21.1307102 14.573672,20.8948268 15.0027443,21.0315967 C15.571341,21.2162328 16.0633412,21.4640496 16.5178356,21.6931044 L16.5620767,21.7170375 C17.2719147,22.0759674 17.862698,22.3562696 18.301873,21.9973397 L19.3062772,21.1751952 C19.6552534,20.8915119 20.1695062,20.9444829 20.4519888,21.2948606 C20.7346033,21.6452383 20.6817781,22.1614238 20.332802,22.4451734 L19.3283978,23.2673178 C18.0771681,24.2894129 17.0540109,23.7920556 15.8215341,23.1715855 L15.7840943,23.1544809 C15.3857266,22.9527403 14.9532867,22.7356852 14.5055936,22.5904293 Z" id="Shape"></path>
                    <path d="M20.6423441,3.99954278 C20.6423441,4.45248134 20.2763319,4.81996352 19.825139,4.81996352 C19.3740123,4.81996352 19.008,4.45248134 19.008,3.99954278 L19.008,0.820420736 C19.008,0.367482192 19.3740123,0 19.825139,0 C20.2763979,0 20.6423441,0.367482192 20.6423441,0.820420736 L20.6423441,3.99954278 Z" id="Shape"></path>
                    <path d="M24.6405004,21.0322153 C25.0695066,20.8937879 25.5291515,21.131395 25.6653743,21.5620579 C25.803248,21.9927871 25.5666573,22.4542779 25.1376511,22.5910478 C24.6900239,22.7363037 24.2575841,22.9550826 23.8574335,23.1568232 L23.8200597,23.1739277 C22.5891677,23.7943315 21.5644258,24.2934789 20.3131961,23.2695938 L19.3087919,22.4475156 C18.9598157,22.1637661 18.9070566,21.6475806 19.1896051,21.2972029 C19.4722197,20.9468252 19.9863404,20.8938542 20.3353826,21.1775375 L21.3397869,21.9996819 C21.779028,22.3586119 22.3680284,22.076586 23.0796492,21.7193798 L23.1240224,21.6954467 C23.5799034,21.4646682 24.0718376,21.2168514 24.6405004,21.0322153 Z" id="Shape"></path>
                    <path d="M29.8877067,12.546277 C32.517871,15.1870042 34.1470647,18.837893 34.1470647,22.8681975 C34.1470647,24.4441345 33.8951545,25.966968 33.4320762,27.3942681 C32.9537444,28.8693017 32.2438405,30.2452218 31.3501049,31.4725049 C29.8503328,33.532076 28.6331753,34.884063 27.6883315,35.9351297 C25.9876258,37.8237879 25.2419988,38.6511699 25.2419988,41.4132197 C25.2419988,41.8661584 24.8759865,42.2336404 24.4248597,42.2336404 L24.4043239,42.2336404 L19.6427969,42.2336404 L14.8591493,42.2336404 C14.4080226,42.2336404 14.0402935,41.8661584 14.0402935,41.4132197 C14.0402935,38.6784841 13.2793472,37.8426823 11.5905931,35.9847197 L11.5888763,35.9830622 L11.5871595,35.9847197 C10.6321468,34.9353101 9.40303761,33.5832567 7.86575969,31.4724387 C6.97202415,30.2451555 6.26212018,28.8675779 5.78378842,27.3925443 C5.32070995,25.9670343 5.0688,24.4424108 5.0688,22.8682638 C5.0688,20.8958729 5.46208325,19.008872 6.17363804,17.2859553 L6.18895734,17.25347 C6.9277831,15.4758586 8.00369935,13.8760547 9.32980872,12.5463433 C10.6645022,11.2063559 12.2664249,10.1226713 14.0505283,9.38087835 L14.0505283,9.37915465 C15.7664873,8.66474222 17.6459402,8.26987952 19.6105075,8.26987952 C21.5717733,8.26987952 23.4493773,8.66474222 25.1671191,9.37915465 C26.9477229,10.1209476 28.5530132,11.2062896 29.8877067,12.546277 Z M32.5110696,22.8681975 C32.5110696,19.2908316 31.0656415,16.05191 28.7318263,13.7067994 C27.5385722,12.5086205 26.1169814,11.5446676 24.5439804,10.8917122 C23.0288891,10.2610323 21.3605387,9.91237842 19.6070078,9.91237842 C17.8552598,9.91237842 16.1869755,10.2610323 14.673535,10.8917122 L14.673535,10.8900547 L14.6701013,10.8917122 C13.0971004,11.5446676 11.6773584,12.5086205 10.4839723,13.7067994 C9.30253776,14.8929787 8.34752505,16.3082127 7.69546461,17.8704264 L7.6784285,17.9148451 C7.05198824,19.4342975 6.70301207,21.109348 6.70301207,22.8681312 C6.70301207,24.2730892 6.92600024,25.6268 7.3346028,26.8864359 C7.76189222,28.1973191 8.39004931,29.4178399 9.17998339,30.5048394 C10.6559841,32.5319251 11.8578224,33.8532168 12.7924313,34.8820741 L12.7907145,34.8837315 C14.6088242,36.8783982 15.5127945,37.8765599 15.6541018,40.5941912 L19.6393633,40.5941912 L23.6246247,40.5941912 C23.7642152,37.8577981 24.6511494,36.8698458 26.4777771,34.8426939 C27.3902656,33.8291511 28.563182,32.5250302 30.0323815,30.5081542 C30.8222496,29.4228122 31.4504727,28.2024239 31.8760452,26.8914745 C32.2880813,25.6268663 32.5110696,24.2748792 32.5110696,22.8681975 Z" id="Shape"></path>
                    <path d="M16.9739391,52.5324077 C16.5228123,52.5324077 16.1568,52.1649257 16.1568,51.711987 C16.1568,51.2590485 16.5228123,50.8915663 16.9739391,50.8915663 L22.2513697,50.8915663 C22.7024965,50.8915663 23.0685088,51.2590485 23.0685088,51.711987 C23.0685088,52.1649257 22.7024965,52.5324077 22.2513697,52.5324077 L16.9739391,52.5324077 Z" id="Shape"></path>
                    <path d="M29.7142271,6.84038847 C29.4911068,7.23008002 28.9923053,7.36512626 28.6024557,7.14124255 C28.2143229,6.91735885 28.079949,6.41655412 28.3029371,6.02513885 L29.8861729,3.27164115 C30.1091611,2.88194958 30.6080286,2.74690335 30.9978122,2.97078705 C31.3876618,3.19467077 31.520451,3.69547546 31.2974629,4.08689074 L29.7142271,6.84038847 Z" id="Shape"></path>
                    <path d="M11.0205271,6.02515555 C11.2435153,6.41484709 11.1107921,6.91565182 10.7208764,7.13960181 C10.3327436,7.36348551 9.83394216,7.22843927 9.61095399,6.83874773 L8.02771817,4.0851837 C7.80473003,3.69549213 7.93917004,3.19468744 8.32736887,2.97080372 C8.71721848,2.74692002 9.21601996,2.88189995 9.43900813,3.27159153 L11.0205271,6.02515555 Z" id="Shape"></path>
                    <path d="M3.96184931,12.5108384 C4.34998212,12.7347221 4.48448814,13.2355268 4.26149997,13.6269421 C4.03851183,14.0166337 3.53964431,14.1516799 3.1515115,13.9277962 L0.408961738,12.338202 C0.0191121251,12.1143183 -0.115327884,11.6135136 0.107660284,11.223822 C0.330648452,10.8324068 0.829449938,10.6990843 1.21929955,10.922968 L3.96184931,12.5108384 Z" id="Shape"></path>
                    <path d="M36.3841893,13.9291606 C35.9943396,14.1530443 35.495538,14.0180644 35.2725498,13.6283065 C35.0494957,13.2368912 35.1840017,12.7360865 35.5721346,12.5122028 L38.3146842,10.9226086 C38.7044018,10.6987249 39.2032034,10.8337048 39.4263237,11.2234627 C39.6493116,11.6131543 39.5148718,12.1156827 39.126673,12.3395664 L36.3841893,13.9291606 Z" id="Shape"></path>
                    <path d="M11.224817,26.2576695 C11.3984796,26.6730179 11.2044133,27.1532706 10.7907263,27.3276307 C10.3770393,27.5019908 9.89870758,27.3070788 9.72504492,26.8917967 C9.44751478,26.2321453 9.23132783,25.5364948 9.08830375,24.8186349 C8.94699647,24.1093273 8.8704,23.3846389 8.8704,22.6565031 C8.8704,22.2035646 9.23812908,21.8360824 9.68753906,21.8360824 C10.1386658,21.8360824 10.5046781,22.2052883 10.5046781,22.6565031 C10.5046781,23.2974589 10.5676721,23.9144816 10.685142,24.4990189 C10.8060456,25.1073568 10.9898771,25.6987226 11.224817,26.2576695 Z M11.224817,19.0533479 C11.0512203,19.4686962 10.5728225,19.663542 10.1591356,19.4891819 C9.74544861,19.3148217 9.55138222,18.8345027 9.72504492,18.4192206 C9.99907537,17.7679889 10.3344491,17.1509662 10.7174974,16.5783622 L10.7192142,16.5766385 L10.7174974,16.5749811 C11.1107807,15.9904438 11.556757,15.4468777 12.0453236,14.956349 C12.5288058,14.4709251 13.0701976,14.0230914 13.659132,13.6249139 L13.659132,13.6231902 C14.2243611,13.2403272 14.8422833,12.9036066 15.4959945,12.6267519 C16.1514226,12.3481072 16.8425737,12.131052 17.5592789,11.9874536 C18.2657493,11.8438551 18.9909725,11.7686747 19.714479,11.7686747 C20.1657379,11.7686747 20.5316841,12.1361569 20.5316841,12.5890954 C20.5316841,13.042034 20.1656718,13.4095162 19.714479,13.4095162 C19.0743703,13.4095162 18.4581649,13.4727631 17.8776164,13.5889811 C17.2698631,13.7103702 16.6825134,13.8966637 16.1275852,14.1324809 C15.5879763,14.3615357 15.0669883,14.6469427 14.5716204,14.9819395 L14.5699036,14.9819395 C14.0881382,15.3066604 13.6284934,15.6895234 13.2029208,16.1168714 C12.7824326,16.5390483 12.401101,17.0022629 12.0725286,17.4927916 L12.0708117,17.4910679 C11.7389377,17.9851103 11.4546064,18.5081244 11.224817,19.0533479 Z" id="Shape"></path>
                </g>
                <text id="November-2016-Idea," font-family="Montserrat-Regular, Montserrat" font-size="16" font-weight="normal">
                    <tspan x="120" y="55" fill="#1E9DF2">November 2016</tspan>
                    <tspan x="247.408" y="55" fill="#FFFFFF"></tspan>
                    <tspan x="120" y="74" fill="#FFFFFF">Idea, concept development</tspan>
                </text>
            </g>
            <g id="2" filter="url(#filter-2)" transform="translate(20.000000, 185.000000)">
                <g id="element" transform="translate(230.000000, 0.000000)" fill-rule="nonzero">
                    <polygon id="Triangle" fill="#2B8ED1" transform="translate(68.075685, 85.465173) rotate(-30.000000) translate(-68.075685, -85.465173) " points="68.0756846 58.185173 99.7556848 112.745173 36.3956848 112.745173"></polygon>
                    <polygon id="Triangle" fill="#2F9AE0" points="54 62.6800002 108.56 31 108.56 94.36"></polygon>
                    <polygon id="Triangle" fill="#2A8FD1" transform="translate(27.280000, 62.680000) scale(-1, 1) translate(-27.280000, -62.680000) " points="0 62.6800002 54.56 31 54.56 94.36"></polygon>
                    <polygon id="Triangle" fill="#2585C2" transform="translate(41.075685, 85.465173) scale(-1, 1) rotate(-30.000000) translate(-41.075685, -85.465173) " points="41.0756847 58.185173 72.7556848 112.745173 9.39568479 112.745173"></polygon>
                    <polygon id="Triangle" fill="#2F9AE0" transform="translate(41.075685, 39.465173) rotate(150.000000) translate(-41.075685, -39.465173) " points="41.0756847 12.185173 72.7556848 66.745173 9.39568479 66.745173"></polygon>
                    <polygon id="Triangle" fill="#209BF2" transform="translate(68.075685, 39.465173) scale(-1, 1) rotate(150.000000) translate(-68.075685, -39.465173) " points="68.0756848 12.185173 99.7556848 66.745173 36.3956848 66.745173"></polygon>
                </g>
                <g id="kremlin" transform="translate(265.000000, 28.000000)" fill="#FFFFFF" fill-rule="nonzero">
                    <path d="M20.1038112,30.9219961 C18.1867666,30.9219961 16.6272122,32.4708393 16.6272122,34.374452 C16.6272122,36.2780647 18.1867666,37.8269079 20.1038112,37.8269079 C22.0208558,37.8269079 23.5804101,36.2780647 23.5804101,34.374452 C23.5804101,32.4708393 22.0208558,30.9219961 20.1038112,30.9219961 Z M20.1038112,36.8745062 C18.7155692,36.8745062 17.586274,35.7529342 17.586274,34.374452 C17.586274,32.9959698 18.7155692,31.8743978 20.1038112,31.8743978 C21.4920531,31.8743978 22.6213483,32.9959698 22.6213483,34.374452 C22.6213483,35.7529342 21.4920531,36.8745062 20.1038112,36.8745062 Z" id="Shape"></path>
                    <path d="M14.3598651,45.0320332 C14.1094366,45.0320332 13.9063957,45.2471061 13.9063957,45.5123748 L13.9063957,46.9533999 C13.9063957,47.2186686 14.1094366,47.4337416 14.3598651,47.4337416 C14.6102936,47.4337416 14.8133345,47.2186686 14.8133345,46.9533999 L14.8133345,45.5123748 C14.8133345,45.2471061 14.6102936,45.0320332 14.3598651,45.0320332 Z" id="Shape"></path>
                    <path d="M17.3829946,45.0320332 C17.1325661,45.0320332 16.9295252,45.2471061 16.9295252,45.5123748 L16.9295252,46.9533999 C16.9295252,47.2186686 17.1325661,47.4337416 17.3829946,47.4337416 C17.6334231,47.4337416 17.836464,47.2186686 17.836464,46.9533999 L17.836464,45.5123748 C17.836464,45.2471061 17.6334231,45.0320332 17.3829946,45.0320332 Z" id="Shape"></path>
                    <path d="M20.1038112,45.0320332 C19.8533827,45.0320332 19.6503417,45.2471061 19.6503417,45.5123748 L19.6503417,46.9533999 C19.6503417,47.2186686 19.8533827,47.4337416 20.1038112,47.4337416 C20.3542397,47.4337416 20.5572806,47.2186686 20.5572806,46.9533999 L20.5572806,45.5123748 C20.5572806,45.2471061 20.3542397,45.0320332 20.1038112,45.0320332 Z" id="Shape"></path>
                    <path d="M22.8246277,45.0320332 C22.5741992,45.0320332 22.3711583,45.2471061 22.3711583,45.5123748 L22.3711583,46.9533999 C22.3711583,47.2186686 22.5741992,47.4337416 22.8246277,47.4337416 C23.0750562,47.4337416 23.2780971,47.2186686 23.2780971,46.9533999 L23.2780971,45.5123748 C23.2780971,45.2471061 23.0750562,45.0320332 22.8246277,45.0320332 Z" id="Shape"></path>
                    <path d="M25.5454443,45.0320332 C25.2950158,45.0320332 25.0919748,45.2471061 25.0919748,45.5123748 L25.0919748,46.9533999 C25.0919748,47.2186686 25.2950158,47.4337416 25.5454443,47.4337416 C25.7958728,47.4337416 25.9989137,47.2186686 25.9989137,46.9533999 L25.9989137,45.5123748 C25.9989137,45.2471061 25.7958728,45.0320332 25.5454443,45.0320332 Z" id="Shape"></path>
                    <path d="M18.4352295,1.93663703 L19.129649,2.2162321 L18.7272794,2.86305831 C18.594127,3.07722646 18.6459667,3.36114328 18.8457536,3.51084492 C18.9282312,3.57267036 19.0241056,3.60256265 19.1193975,3.60256265 C19.2545304,3.60256265 19.3882653,3.54217779 19.4800624,3.42681031 L19.9526777,2.83256576 L20.4252931,3.42681031 C20.5183716,3.54373845 20.6557178,3.6012421 20.7914331,3.60256265 C21.0472535,3.60064186 21.25403,3.38635368 21.25403,3.12236504 C21.25403,3.01095918 21.217218,2.90855703 21.1554763,2.82704348 L20.77559,2.21635215 L21.4700095,1.93675708 C21.6999683,1.84431904 21.8198404,1.58297148 21.7436535,1.34107192 C21.66735,1.09917237 21.4215481,0.961475701 21.1825028,1.02486179 L20.4612897,1.21934183 L20.4178375,0.452226117 C20.4035087,0.19832162 20.1995281,0 19.9526777,0 C19.7058274,0 19.5018467,0.19832162 19.487518,0.452226117 L19.4440658,1.21934183 L18.7228527,1.02486179 C18.4840404,0.961235602 18.237889,1.09905232 18.161702,1.34107192 C18.0853986,1.58285143 18.2053872,1.84407894 18.4352295,1.93663703 Z" id="Shape"></path>
                    <path d="M39.645657,42.6086193 C39.4860358,42.528078 39.2946569,42.5429365 39.1499037,42.6474159 L37.878643,43.5640285 L36.606193,42.6474159 C36.4614395,42.5431721 36.2700606,42.528078 36.1105581,42.6087373 C35.9511748,42.6893962 35.8507873,42.8517758 35.8507873,43.0291314 L35.8507873,46.154081 L33.9298608,46.154081 L33.9298608,43.0291314 C33.9298608,42.8516578 33.8294733,42.6892783 33.6699709,42.6087373 C33.5103496,42.528196 33.3189707,42.5430544 33.1742172,42.6475339 L31.9029565,43.5641462 L30.6316961,42.6475339 C30.4869426,42.5431721 30.2956825,42.528314 30.1359424,42.6087373 C29.9765591,42.6892783 29.8761714,42.8516578 29.8761714,43.0291314 L29.8761714,46.154081 L27.9516769,46.154081 L27.9516769,39.1376847 C27.9516769,38.8771939 27.7386503,38.6659942 27.4759057,38.6659942 L27.2380201,38.6659942 L27.2380201,36.4175637 C27.2380201,36.1570726 27.0249935,35.9458733 26.7622489,35.9458733 C26.4995042,35.9458733 26.2864777,36.1570726 26.2864777,36.4175637 L26.2864777,38.6659942 L25.6322923,38.6659942 L25.6322923,29.8217976 C25.6322923,29.5613065 25.4192657,29.3501071 25.1565211,29.3501071 L24.3239215,29.3501071 L24.3239215,18.5601871 C24.3239215,18.299696 24.1108949,18.0884966 23.8481503,18.0884966 L22.9014845,18.0884966 L20.3311306,4.58718166 C20.288668,4.36430792 20.0922935,4.20298976 19.8635665,4.20298976 C19.6348395,4.20298976 19.4384649,4.36430792 19.3960024,4.58718166 L16.8256484,18.0883786 L15.8789827,18.0883786 C15.616238,18.0883786 15.4032115,18.2995781 15.4032115,18.5600691 L15.4032115,29.3499892 L14.5706119,29.3499892 C14.3078673,29.3499892 14.0948407,29.5611886 14.0948407,29.8216797 L14.0948407,38.6658762 L13.3811839,38.6658762 L13.3811839,36.4174457 C13.3811839,36.1569546 13.1681574,35.9457553 12.9054127,35.9457553 C12.6426681,35.9457553 12.4296415,36.1569546 12.4296415,36.4174457 L12.4296415,38.6658762 L12.1917559,38.6658762 C11.9290113,38.6658762 11.7159847,38.8770759 11.7159847,39.137567 L11.7159847,46.153963 L10.0293758,46.153963 L10.0293758,43.0290134 C10.0293758,42.8515398 9.92898807,42.6891606 9.76948579,42.6086193 C9.60998349,42.528078 9.41848558,42.5429365 9.27373219,42.6474159 L8.00247156,43.5640285 L6.73121093,42.6474159 C6.58657646,42.5430544 6.39507856,42.528196 6.23545732,42.6086193 C6.07607398,42.6891606 5.97556732,42.8515398 5.97556732,43.0290134 L5.97556732,46.153963 L4.05464109,46.153963 L4.05464109,43.0290134 C4.05464109,42.8516578 3.95425338,42.6892783 3.79487004,42.6086193 C3.63548666,42.528196 3.44398876,42.5431721 3.29923536,42.6472979 L2.02690425,43.5639105 L0.755643607,42.6472979 C0.611009162,42.5429365 0.419511255,42.528078 0.259890017,42.6085013 C0.100506666,42.6890426 0,42.8514221 0,43.0288954 L0,54.46739 C0,54.7278811 0.213026554,54.9390805 0.475771199,54.9390805 L39.429538,54.9390805 C39.6922828,54.9390805 39.9053094,54.7278811 39.9053094,54.46739 L39.9053094,43.0288954 C39.9054282,42.8515398 39.8050406,42.6891606 39.645657,42.6086193 Z M12.6675271,39.6092574 L15.0166474,39.6092574 L15.0166474,42.9346752 C15.0166474,43.1951663 15.229674,43.406366 15.4924186,43.406366 C15.7551632,43.406366 15.9681898,43.1951663 15.9681898,42.9346752 L15.9681898,39.6092574 L19.3580596,39.6092574 L19.3580596,42.9346752 C19.3580596,43.1951663 19.5710861,43.406366 19.8338308,43.406366 C20.0965754,43.406366 20.309602,43.1951663 20.309602,42.9346752 L20.309602,39.6092574 L23.6994718,39.6092574 L23.6994718,42.9346752 C23.6994718,43.1951663 23.9124983,43.406366 24.175243,43.406366 C24.4379876,43.406366 24.6510142,43.1951663 24.6510142,42.9346752 L24.6510142,39.6092574 L27.0001345,39.6092574 L27.0001345,49.6326804 L12.6675271,49.6326804 L12.6675271,39.6092574 Z M23.3723791,25.5175039 L22.0640083,25.5175039 L22.0640083,19.0317596 L23.3723791,19.0317596 L23.3723791,25.5175039 Z M21.1124659,19.0317596 L21.1124659,25.5175039 L18.6146671,25.5175039 L18.6146671,19.0317596 L21.1124659,19.0317596 Z M19.8635665,7.21779954 L21.9331712,18.0883786 L17.7939618,18.0883786 L19.8635665,7.21779954 Z M17.6631247,19.0317596 L17.6631247,25.5175039 L16.3547539,25.5175039 L16.3547539,19.0317596 L17.6631247,19.0317596 Z M16.3547539,26.4608849 L23.3723791,26.4608849 L23.3723791,29.3499892 L16.3547539,29.3499892 L16.3547539,26.4608849 Z M15.0463831,30.2933702 L24.6807499,30.2933702 L24.6807499,38.6658762 L15.0463831,38.6658762 L15.0463831,30.2933702 Z M0.951661341,43.9551776 L1.74715078,44.5286354 C1.91390859,44.6489165 2.13989991,44.6486806 2.30665771,44.5287534 L3.10345553,43.954706 L3.10345553,46.6255355 C3.10345553,46.8860266 3.31648207,47.0972259 3.57922673,47.0972259 L6.45169534,47.0972259 C6.71443997,47.0972259 6.92746654,46.8860266 6.92746654,46.6255355 L6.92746654,43.9550597 L7.72295597,44.5285174 C7.88971379,44.6487985 8.11582404,44.6487985 8.28258186,44.5285174 L9.07807129,43.9550597 L9.07807129,46.6255355 C9.07807129,46.8860266 9.29109786,47.0972259 9.55384249,47.0972259 L11.7162226,47.0972259 L11.7162226,53.9956996 L0.951899225,53.9956996 L0.951899225,43.9551776 L0.951661341,43.9551776 Z M12.6675271,53.9958173 L12.6675271,50.5760613 L27.0001345,50.5760613 L27.0001345,53.9958173 L12.6675271,53.9958173 Z M38.9538858,53.9958173 L27.9516769,53.9958173 L27.9516769,47.0973439 L30.3519426,47.0973439 C30.6146871,47.0973439 30.8277137,46.8861446 30.8277137,46.6256535 L30.8277137,43.9551776 L31.6232031,44.5286354 C31.789961,44.6489165 32.0160711,44.6489165 32.1828291,44.5286354 L32.9783184,43.9551776 L32.9783184,46.6256535 C32.9783184,46.8861446 33.1913451,47.0973439 33.4540898,47.0973439 L36.3265583,47.0973439 C36.589303,47.0973439 36.8023297,46.8861446 36.8023297,46.6256535 L36.8023297,43.954824 L37.5991274,44.5288713 C37.7658851,44.6489165 37.9918764,44.6490345 38.1586343,44.5287534 L38.9541237,43.9552956 L38.9541237,53.9958173 L38.9538858,53.9958173 Z" id="Shape"></path>
                    <path d="M21.2962678,33.897216 L20.5908709,33.897216 L20.5908709,33.1870557 C20.5908709,32.9309342 20.3803099,32.7232774 20.1206063,32.7232774 C19.8609027,32.7232774 19.6503417,32.9309342 19.6503417,33.1870557 L19.6503417,34.360994 C19.6503417,34.6171155 19.8609027,34.8247723 20.1206063,34.8247723 L21.2962678,34.8247723 C21.5559714,34.8247723 21.7665324,34.6171155 21.7665324,34.360994 C21.7665324,34.1048725 21.5559714,33.897216 21.2962678,33.897216 Z" id="Shape"></path>
                </g>
                <text id="December-2016-Openin" font-family="Montserrat-Regular, Montserrat" font-size="16" font-weight="normal">
                    <tspan x="91.528" y="55" fill="#1E9DF2">December 2016</tspan>
                    <tspan x="219" y="55" fill="#FFFFFF"></tspan>
                    <tspan x="11.512" y="74" fill="#FFFFFF">Opening office in Moscow</tspan>
                </text>
            </g>
            <g id="3" filter="url(#filter-3)" transform="translate(20.000000, 345.000000)">
                <g id="element" fill-rule="nonzero">
                    <polygon id="Triangle" fill="#2B8ED1" transform="translate(68.075685, 85.465173) rotate(-30.000000) translate(-68.075685, -85.465173) " points="68.0756846 58.185173 99.7556848 112.745173 36.3956848 112.745173"></polygon>
                    <polygon id="Triangle" fill="#2F9AE0" points="54 62.6800002 108.56 31 108.56 94.36"></polygon>
                    <polygon id="Triangle" fill="#2A8FD1" transform="translate(27.280000, 62.680000) scale(-1, 1) translate(-27.280000, -62.680000) " points="0 62.6800002 54.56 31 54.56 94.36"></polygon>
                    <polygon id="Triangle" fill="#2585C2" transform="translate(41.075685, 85.465173) scale(-1, 1) rotate(-30.000000) translate(-41.075685, -85.465173) " points="41.0756847 58.185173 72.7556848 112.745173 9.39568479 112.745173"></polygon>
                    <polygon id="Triangle" fill="#2F9AE0" transform="translate(41.075685, 39.465173) rotate(150.000000) translate(-41.075685, -39.465173) " points="41.0756847 12.185173 72.7556848 66.745173 9.39568479 66.745173"></polygon>
                    <polygon id="Triangle" fill="#209BF2" transform="translate(68.075685, 39.465173) scale(-1, 1) rotate(150.000000) translate(-68.075685, -39.465173) " points="68.0756848 12.185173 99.7556848 66.745173 36.3956848 66.745173"></polygon>
                </g>
                <g id="report" transform="translate(33.000000, 40.000000)" fill="#FFFFFF" fill-rule="nonzero">
                    <path d="M1.52173913,10.5 L9.89130434,10.5 C10.3478261,10.5 10.6521739,10.2 10.6521739,9.75000002 L10.6521739,1.5 L33.4782609,1.5 L33.4782609,3.75000001 L35,3.75000001 L35,0.750000002 C35,0.300000001 34.6956522,0 34.2391304,0 L9.89130434,0 C9.81521738,0 9.73913045,0 9.66304348,0.0750000002 L9.58695652,0.0750000002 C9.51086955,0.15 9.43478262,0.15 9.35869566,0.225000001 L0.22826087,9.22500003 C0.152173913,9.30000004 0.152173913,9.37500001 0.0760869566,9.45000002 L0.0760869566,9.52500003 C0.0760869566,9.60000004 0,9.67500001 0,9.75000002 L0,44.2500003 C0,44.7 0.304347826,45 0.760869566,45 L28.1521739,45 L28.1521739,43.5000002 L1.52173913,43.5000002 L1.52173913,10.5 Z M9.13043479,9.00000003 L2.58695652,9.00000003 L5.85869566,5.77500002 L9.13043479,2.55000001 L9.13043479,9.00000003 Z" id="Shape"></path>
                    <path d="M37,21 C41.4363638,21 45,17.4363636 45,13 C45,8.56363636 41.4363638,5 37,5 C32.5636364,5 29,8.56363636 29,13 C29,17.4363636 32.5636364,21 37,21 Z M37,6.45454543 C40.6363637,6.45454543 43.5454547,9.36363636 43.5454547,13 C43.5454547,16.6363636 40.6363637,19.5454545 37,19.5454545 C33.3636364,19.5454545 30.4545454,16.6363636 30.4545454,13 C30.4545454,9.36363636 33.3636364,6.45454543 37,6.45454543 Z" id="Shape"></path>
                    <path d="M34.5000001,16.5714286 L35.2499999,16.5714286 L35.2499999,18 L36.7500001,18 L36.7500001,16.5714286 L37.5000002,16.5714286 C38.4000001,16.5714286 39,16 39,15.1428571 L39,13.7142857 C39,12.8571428 38.4000001,12.2857143 37.5000002,12.2857143 L34.5000001,12.2857143 L34.5000001,10.8571429 L37.5000002,10.8571429 L37.5000002,11.5714286 L39,11.5714286 L39,10.8571429 C39,10 38.4000001,9.42857143 37.5000002,9.42857143 L36.7500001,9.42857143 L36.7500001,8 L35.2499999,8 L35.2499999,9.42857143 L34.5000001,9.42857143 C33.6,9.42857143 33,10 33,10.8571429 L33,12.2857143 C33,13.1428571 33.6,13.7142857 34.5000001,13.7142857 L37.5000002,13.7142857 L37.5000002,15.1428571 L34.5000001,15.1428571 L34.5000001,14.4285714 L33,14.4285714 L33,15.1428571 C33,16 33.6,16.5714286 34.5000001,16.5714286 Z" id="Shape"></path>
                    <rect id="Rectangle-path" x="14" y="4" width="5" height="2"></rect>
                    <rect id="Rectangle-path" x="14" y="8" width="12" height="2"></rect>
                    <path d="M7.43243244,14.2294118 L5,16.5235294 L6.13513513,17.5941177 L7.18918916,16.6 L7.18918916,27 L8.8108108,27 L8.8108108,16.6 L9.86486487,17.5941177 L11,16.5235294 L8.56756756,14.2294118 C8.24324324,13.9235294 7.75675676,13.9235294 7.43243244,14.2294118 Z" id="Shape"></path>
                    <path d="M14.1351352,19.2538461 L15.1891892,18.3538462 L15.1891892,25 L16.8108108,25 L16.8108108,18.3538462 L17.8648649,19.2538461 L19,18.2846154 L16.5675676,16.2076923 C16.2432433,15.9307692 15.7567567,15.9307692 15.4324325,16.2076923 L13,18.2846154 L14.1351352,19.2538461 Z" id="Shape"></path>
                    <path d="M23.8108108,14.5052632 L24.8648649,15.4631579 L26,14.431579 L23.5675676,12.2210526 C23.2432433,11.9263158 22.7567567,11.9263158 22.4324324,12.2210526 L20,14.431579 L21.1351352,15.4631579 L22.1891892,14.5052632 L22.1891892,26 L23.8108108,26 L23.8108108,14.5052632 Z" id="Shape"></path>
                    <rect id="Rectangle-path" x="7" y="30" width="12" height="2"></rect>
                    <rect id="Rectangle-path" x="7" y="33" width="20" height="2"></rect>
                    <rect id="Rectangle-path" x="7" y="37" width="20" height="2"></rect>
                    <rect id="Rectangle-path" x="20" y="30" width="3" height="2"></rect>
                    <path d="M33,24 L33,41" id="Line-2" stroke="#FFFFFF" stroke-width="2" stroke-linecap="square"></path>
                </g>
                <text id="January-2017-US-corp" font-family="Montserrat-Regular, Montserrat" font-size="16" font-weight="normal">
                    <tspan x="120" y="55" fill="#1E9DF2">January 2017</tspan>
                    <tspan x="227.296" y="55" fill="#FFFFFF"></tspan>
                    <tspan x="120" y="74" fill="#FFFFFF">US corporation registry </tspan>
                    <tspan x="120" y="93" fill="#FFFFFF">and opening a bank </tspan>
                    <tspan x="120" y="112" fill="#FFFFFF">account</tspan>
                </text>
            </g>
            <g id="4" filter="url(#filter-4)" transform="translate(20.000000, 505.000000)">
                <g id="element" transform="translate(230.000000, 0.000000)" fill-rule="nonzero">
                    <polygon id="Triangle" fill="#2B8ED1" transform="translate(68.075685, 85.465173) rotate(-30.000000) translate(-68.075685, -85.465173) " points="68.0756846 58.185173 99.7556848 112.745173 36.3956848 112.745173"></polygon>
                    <polygon id="Triangle" fill="#2F9AE0" points="54 62.6800002 108.56 31 108.56 94.36"></polygon>
                    <polygon id="Triangle" fill="#2A8FD1" transform="translate(27.280000, 62.680000) scale(-1, 1) translate(-27.280000, -62.680000) " points="0 62.6800002 54.56 31 54.56 94.36"></polygon>
                    <polygon id="Triangle" fill="#2585C2" transform="translate(41.075685, 85.465173) scale(-1, 1) rotate(-30.000000) translate(-41.075685, -85.465173) " points="41.0756847 58.185173 72.7556848 112.745173 9.39568479 112.745173"></polygon>
                    <polygon id="Triangle" fill="#2F9AE0" transform="translate(41.075685, 39.465173) rotate(150.000000) translate(-41.075685, -39.465173) " points="41.0756847 12.185173 72.7556848 66.745173 9.39568479 66.745173"></polygon>
                    <polygon id="Triangle" fill="#209BF2" transform="translate(68.075685, 39.465173) scale(-1, 1) rotate(150.000000) translate(-68.075685, -39.465173) " points="68.0756848 12.185173 99.7556848 66.745173 36.3956848 66.745173"></polygon>
                </g>
                <text id="200.000-$" font-family="Montserrat-Regular, Montserrat" font-size="16" font-weight="normal" fill="#FFFFFF">
                    <tspan x="251.337" y="60">2</tspan>
                    <tspan x="261.209" y="60" font-size="18">00.000</tspan>
                    <tspan x="280.402" y="82" font-size="18">$</tspan>
                </text>
                <text id="February-2017-Self-f" font-family="Montserrat-Regular, Montserrat" font-size="16" font-weight="normal">
                    <tspan x="103.88" y="55" fill="#1E9DF2">February 2017</tspan>
                    <tspan x="219" y="55" fill="#F8E71C"></tspan>
                    <tspan x="59.864" y="74" fill="#FFFFFF">Self funded great of </tspan>
                    <tspan x="145.016" y="93" fill="#FFFFFF">$200 000</tspan>
                </text>
            </g>
            <g id="5" filter="url(#filter-5)" transform="translate(20.000000, 665.000000)">
                <g id="element" fill-rule="nonzero">
                    <polygon id="Triangle" fill="#2B8ED1" transform="translate(68.075685, 85.465173) rotate(-30.000000) translate(-68.075685, -85.465173) " points="68.0756846 58.185173 99.7556848 112.745173 36.3956848 112.745173"></polygon>
                    <polygon id="Triangle" fill="#2F9AE0" points="54 62.6800002 108.56 31 108.56 94.36"></polygon>
                    <polygon id="Triangle" fill="#2A8FD1" transform="translate(27.280000, 62.680000) scale(-1, 1) translate(-27.280000, -62.680000) " points="0 62.6800002 54.56 31 54.56 94.36"></polygon>
                    <polygon id="Triangle" fill="#2585C2" transform="translate(41.075685, 85.465173) scale(-1, 1) rotate(-30.000000) translate(-41.075685, -85.465173) " points="41.0756847 58.185173 72.7556848 112.745173 9.39568479 112.745173"></polygon>
                    <polygon id="Triangle" fill="#2F9AE0" transform="translate(41.075685, 39.465173) rotate(150.000000) translate(-41.075685, -39.465173) " points="41.0756847 12.185173 72.7556848 66.745173 9.39568479 66.745173"></polygon>
                    <polygon id="Triangle" fill="#209BF2" transform="translate(68.075685, 39.465173) scale(-1, 1) rotate(150.000000) translate(-68.075685, -39.465173) " points="68.0756848 12.185173 99.7556848 66.745173 36.3956848 66.745173"></polygon>
                </g>
                <g id="team" transform="translate(26.000000, 41.000000)" fill="#FFFFFF" fill-rule="nonzero">
                    <path d="M51.5399918,19.765475 C49.6077947,19.0087746 45.9850633,19 45.8317921,19 C45.372421,19 45,19.2917336 45,19.651579 C45,20.0114244 45.372421,20.303158 45.8317921,20.303158 C46.7666153,20.3032449 49.4808077,20.4160115 50.7960373,20.9311064 C50.9154825,20.9779332 51.0423587,21 51.1673492,21 C51.4724504,21 51.7662392,20.8679467 51.9119695,20.6397203 C52.1174774,20.3178402 51.9508973,19.9264585 51.5399918,19.765475 Z" id="Shape"></path>
                    <path d="M56.3625156,31.5721385 L52.7931307,30.5596793 C52.6390627,30.5159777 52.5314335,30.3743478 52.5314335,30.2152144 L52.5314335,29.0324104 C52.8218241,28.8326642 53.0988476,28.6091224 53.3577793,28.3596112 C54.6126816,27.1506091 55.303742,25.5289584 55.303742,23.7932487 L55.303742,22.1610729 L55.6488693,21.4759184 C56.0276444,20.7237241 56.2278066,19.8816097 56.2278066,19.0407538 L56.2278066,14.6191099 C56.2278066,14.1452562 55.8408495,13.7610937 55.363549,13.7610937 L47.0467382,13.7610937 C44.0225274,13.7610937 41.5620429,16.2038088 41.5620429,19.2061793 L41.5620429,19.2573171 C41.5620429,19.9565431 41.7285566,20.6567988 42.043492,21.2821211 L42.4861075,22.1609585 L42.4861075,23.5623851 C42.4861075,25.7833888 43.5885547,27.7761602 45.258416,28.9753237 L45.2586467,30.2149856 C45.2586467,30.4061516 45.2586467,30.485318 44.545,30.6878098 L42.8033476,31.1817983 L37.7651856,29.3630327 C37.7832774,29.127021 37.7030742,28.8870053 37.5296465,28.7061354 L35.919707,27.0269404 L35.919707,24.208071 C36.0899082,24.0688435 36.2576894,23.9258408 36.4202851,23.7746011 C38.451291,21.8846773 39.6160801,19.2163611 39.6160801,16.4538919 L39.6160801,14.2026861 C40.2293574,12.8777946 40.5401445,11.475796 40.5401445,10.0319262 L40.5401445,0.858016267 C40.5401445,0.384162483 40.1531875,0 39.6758867,0 L26.7386387,0 C22.1857285,0 18.48175,3.67734332 18.48175,8.1972586 L18.48175,10.032155 C18.48175,11.4760248 18.7925371,12.8780234 19.4058144,14.2029149 L19.4058144,16.139858 C19.4058144,19.3472372 20.8423262,22.2368072 23.1021875,24.1418321 L23.1021875,27.0270548 L21.4922481,28.7062498 C21.3188203,28.8871196 21.2386172,29.1271354 21.256709,29.3631471 L15.9392187,31.2827011 C15.553875,31.4218141 15.1958418,31.6102345 14.8707656,31.8384668 L14.0357774,31.4239877 C16.5213828,30.3498658 17.3087793,28.8391851 17.3465762,28.7641373 C17.4682637,28.5226343 17.4682637,28.2382306 17.3465762,27.9967276 C16.7235039,26.7595825 16.6480254,24.4920171 16.5874121,22.6700482 C16.5672461,22.0634879 16.5481172,21.4904474 16.5115879,20.9802137 C16.2169336,16.8647101 13.0655039,13.7610937 9.18095311,13.7610937 C5.29640236,13.7610937 2.14485742,16.8645957 1.85031836,20.9802137 C1.81378906,21.4905618 1.79466016,22.0636023 1.77449414,22.670277 C1.71388086,24.4921315 1.63828711,26.7594681 1.01533008,27.9966131 C0.89364258,28.2381161 0.89364258,28.5225199 1.01533008,28.7640229 C1.05312695,28.8390707 1.83891016,30.3466625 4.32947071,31.4220429 L2.01014844,32.5732719 C0.770226561,33.1892132 0,34.4264726 0,35.8026163 L0,42.1415263 C0,42.6153797 0.386957031,42.9995426 0.864257811,42.9995426 C1.34155859,42.9995426 1.72851562,42.6153797 1.72851562,42.1415263 L1.72851562,35.8026163 C1.72851562,35.0805099 2.13264258,34.4312775 2.78314063,34.1083202 L5.67125976,32.6747467 L6.67587306,33.6225686 C7.37834179,34.2853004 8.27947462,34.6164947 9.18095311,34.6164947 C10.0822012,34.6164947 10.9837949,34.2850716 11.6860332,33.6225686 L12.6905313,32.674861 L13.6322266,33.1423083 C13.1888047,33.8466825 12.9371328,34.6726661 12.9371328,35.5378898 L12.9371328,42.1417548 C12.9371328,42.6156087 13.3240899,42.9997711 13.8013906,42.9997711 C14.2786914,42.9997711 14.6656484,42.6156087 14.6656484,42.1417548 L14.6656484,35.5378898 C14.6656484,34.360005 15.4147871,33.2981241 16.5299101,32.8955428 L22.136293,30.8716541 L24.4701348,34.3473064 C24.7684766,34.7916444 25.246584,35.0766202 25.7818476,35.1292452 C25.8415391,35.1350797 25.9008848,35.1379397 25.9601152,35.1379397 C26.4323457,35.1379397 26.8846406,34.9534091 27.2227383,34.6178675 L28.6465742,33.2043143 L28.6465742,42.1418695 C28.6465742,42.6157229 29.0335312,42.9998857 29.510832,42.9998857 C29.9881328,42.9998857 30.3750899,42.6157229 30.3750899,42.1418695 L30.3750899,33.2043143 L31.7989258,34.6178675 C32.1369082,34.9535234 32.5892031,35.1380542 33.0615488,35.1380542 C33.1206641,35.1380542 33.180125,35.1351941 33.2397012,35.1293596 C33.7750801,35.0767346 34.2531875,34.7917588 34.5515293,34.3474207 L36.8854863,30.8718829 L42.4917538,32.8957716 C43.6067618,33.2983529 44.3560156,34.3602338 44.3560156,35.5381186 L44.3560156,42.1419837 C44.3560156,42.6158376 44.7429726,43 45.2202736,43 C45.6975741,43 46.0845311,42.6158376 46.0845311,42.1419837 L46.0845311,35.5381186 C46.0845311,34.3451327 45.6071151,33.2262795 44.8062363,32.3988086 L45.0197656,32.3382899 C45.2351387,32.2771991 45.5289863,32.1935711 45.8239863,32.0499964 L48.0306094,34.2406835 L48.0306094,42.1419837 C48.0306094,42.6158376 48.4175665,43 48.894867,43 C49.3721679,43 49.759125,42.6158376 49.759125,42.1419837 L49.759125,34.2406835 L51.9504217,32.0652119 C52.066924,32.1240146 52.1893028,32.1736652 52.3181349,32.2101594 L55.8876349,33.2226186 C56.702342,33.453711 57.2714844,34.202702 57.2714844,35.0440156 L57.2714844,42.1419837 C57.2714844,42.6158376 57.6584415,43 58.135742,43 C58.6130429,43 59,42.6158376 59,42.1419837 L59,35.0440156 C59,33.440326 57.9154141,32.0127013 56.3625156,31.5721385 Z M5.54450194,30.056653 C3.92787891,29.4791509 3.11697461,28.7092243 2.77081055,28.2887963 C3.00681055,27.6762871 3.1598418,26.974773 3.2634375,26.2342477 C3.74004687,27.3687741 4.53827538,28.3373028 5.54450194,29.0282919 L5.54450194,30.056653 Z M10.4955469,32.3787882 C9.75839259,33.0741246 8.60362891,33.0740102 7.86670509,32.3786739 L7.06294533,31.6204163 C7.19857618,31.3681595 7.27313283,31.0821541 7.27313283,30.7825348 L7.27313283,29.8680039 C7.87603906,30.0550514 8.51697264,30.1559541 9.18118359,30.1559541 C9.84458788,30.1559541 10.4851758,30.0545938 11.0891191,29.8685758 L11.0890039,30.7824204 C11.0890039,31.0821541 11.1634453,31.3682739 11.2991914,31.6206451 L10.4955469,32.3787882 Z M9.18141406,28.4399216 C6.600625,28.4399216 4.50116991,26.3555141 4.50116991,23.7934775 C4.50116991,23.3196237 4.11421289,22.9354612 3.63691211,22.9354612 C3.58851367,22.9354612 3.54126758,22.9403805 3.49505859,22.9480454 C3.49759375,22.874256 3.50001367,22.8003523 3.50254883,22.7272493 C3.52179297,22.1372773 3.5403457,21.5800243 3.57457031,21.102052 C3.68496484,19.5603684 4.30550194,18.1397223 5.32186915,17.101637 C6.34733986,16.0541708 7.7179375,15.477355 9.18118359,15.477355 C10.6444297,15.477355 12.0149121,16.0541708 13.0404981,17.101637 C14.0568652,18.1397223 14.6774024,19.5603684 14.7877969,21.102052 C14.8219062,21.5799099 14.8405742,22.1370485 14.8601641,22.7269061 C14.8618926,22.7775862 14.8636211,22.8289528 14.8653496,22.8799761 C13.9250371,21.4417121 12.4728535,20.381776 10.5964922,19.7832239 C8.86302147,19.2303182 7.37211915,19.2645244 7.30920118,19.266126 C7.08288085,19.2724182 6.86808397,19.3664568 6.71101953,19.5282214 L5.15166797,21.1337414 C4.82036915,21.4748887 4.83027929,22.0180702 5.17390821,22.3469764 C5.51753712,22.6758827 6.06466991,22.6659297 6.39596873,22.3248968 L7.69350783,20.9890227 C8.81093556,21.0432493 12.4059024,21.4583004 13.804041,24.5147832 C13.4522305,26.7671331 11.5022344,28.4399216 9.18141406,28.4399216 Z M12.8174043,30.0595131 L12.8175195,29.0361857 C13.8229394,28.3489719 14.6223203,27.3822735 15.0992754,26.239167 C15.2028711,26.9779762 15.3557871,27.6778887 15.5913262,28.2890251 C15.2471211,28.705449 14.4324141,29.4822397 12.8174043,30.0595131 Z M21.1343301,16.1397436 L21.1343301,14.010948 C21.1343301,13.881788 21.1049453,13.7542296 21.0483652,13.6378825 C20.4922441,12.4945473 20.2102656,11.2814267 20.2102656,10.032155 L20.2102656,8.19737302 C20.2102656,4.62356366 23.1389473,1.71614693 26.7386387,1.71614693 L38.8116289,1.71614693 L38.8116289,10.0322694 C38.8116289,11.2815411 38.5296504,12.4946617 37.9735293,13.637997 C37.9169492,13.7543439 37.8875644,13.8819024 37.8875644,14.0110624 L37.8875644,16.4541207 C37.8875644,18.7777432 36.9466758,20.9329656 35.2382109,22.5228126 C35.0249121,22.721186 34.8035469,22.9072039 34.5746914,23.0805232 C34.5696211,23.0839552 34.5647812,23.0877305 34.5598262,23.091277 C32.9593359,24.2976479 30.9989687,24.883959 28.9517149,24.7522821 C24.568084,24.4705095 21.1343301,20.6874586 21.1343301,16.1397436 Z M26.0005625,33.4042893 C25.9945703,33.4102382 25.9806269,33.4243096 25.9523945,33.4213352 C25.9242774,33.4185895 25.9132149,33.40223 25.9084902,33.3951371 L23.2206484,29.392434 L24.0855976,28.4901441 L28.163166,31.2571894 L26.0005625,33.4042893 Z M29.5109473,30.0931473 L24.8307031,26.9171143 L24.8307031,25.3154839 C26.0417012,25.9654027 27.3976641,26.3718735 28.8398223,26.4645393 C29.0676406,26.4791828 29.2940762,26.4863901 29.5198203,26.4863901 C31.1723965,26.4863901 32.7628613,26.0942195 34.1911914,25.3498046 L34.1911914,26.9171143 L29.5109473,30.0931473 Z M33.1134043,33.3953659 C33.1086797,33.4024588 33.0976172,33.4188183 33.0695,33.421564 C33.0412676,33.4251105 33.0274394,33.4103526 33.021332,33.4045181 L30.8587285,31.2575326 L34.9362969,28.4903729 L35.8013613,29.3926628 L33.1134043,33.3953659 Z M48.894867,32.671429 L46.9335783,30.7244185 C46.9678028,30.57009 46.9871622,30.4011179 46.9870467,30.2147568 L46.9869316,29.852674 C47.5311835,30.0299973 48.1048203,30.1352473 48.6983925,30.1528652 C48.7649981,30.1549245 48.8310274,30.1558397 48.8974024,30.1558397 C49.5533165,30.1558397 50.1935585,30.0574538 50.8029179,29.8697199 L50.8029179,30.2152144 C50.8029179,30.3863601 50.8245821,30.5540737 50.865375,30.7152663 L48.894867,32.671429 Z M52.154041,27.1281863 C51.2380429,28.0106846 50.027967,28.4767591 48.7503632,28.4376335 C46.2493165,28.3631577 44.2146231,26.1761314 44.2146231,23.5626139 L44.2146231,21.9585811 C44.2146231,21.8253026 44.1833944,21.6939689 44.1233575,21.5748762 L43.5894764,20.5148257 C43.393924,20.1264304 43.2905585,19.6917021 43.2905585,19.2574315 L43.2905585,19.2062937 C43.2905585,17.1500291 44.9756307,15.4772406 47.0467382,15.4772406 L54.499291,15.4772406 L54.499291,19.0408682 C54.499291,19.6167687 54.3621622,20.19347 54.1027694,20.708623 L53.666492,21.5748762 C53.6064552,21.6940833 53.5752264,21.8253026 53.5752264,21.9585811 L53.5752264,23.7933631 C53.5752264,25.0609391 53.0705,26.2452304 52.154041,27.1281863 Z" id="Shape"></path>
                    <path d="M55,36 C54.4477335,36 54,36.3724313 54,36.8318149 L54,42.1681849 C54,42.6275689 54.4477335,43 55,43 C55.5522665,43 56,42.6275689 56,42.1681849 L56,36.8318149 C56,36.3725422 55.5522665,36 55,36 Z" id="Shape"></path>
                    <path d="M5,37 C4.44773333,37 4,37.3787147 4,37.8458488 L4,42.1541512 C4,42.6212852 4.44773333,43 5,43 C5.55226665,43 6,42.6212852 6,42.1541512 L6,37.8458488 C6,37.3788275 5.55226665,37 5,37 Z" id="Shape"></path>
                    <path d="M36.7410893,10.5841417 C33.397849,7.29299585 26.4029269,7.92219572 23.5504592,8.34545243 C22.6520061,8.47876439 22,9.22723726 22,10.1251495 L22,12.1298176 C22,12.6103903 22.3957767,13 22.8839562,13 C23.3721357,13 23.7679124,12.6103903 23.7679124,12.1298176 L23.7679124,10.1250334 C23.7679124,10.0954472 23.787713,10.0701539 23.8141138,10.0662091 C24.9534745,9.89716168 27.2143987,9.63633901 29.5568826,9.79007122 C32.3134116,9.97072109 34.309974,10.6518998 35.4910573,11.8146956 C35.8362717,12.1545308 36.3959928,12.1545308 36.7410893,11.8146956 C37.0863036,11.4748603 37.0863036,10.9238609 36.7410893,10.5841417 Z" id="Shape"></path>
                    <path d="M20,38 C19.4477334,38 19,38.3566497 19,38.7965673 L19,42.2034327 C19,42.6433504 19.4477334,43 20,43 C20.5522666,43 21,42.6433504 21,42.2034327 L21,38.7965673 C21,38.356756 20.5522666,38 20,38 Z" id="Shape"></path>
                    <path d="M40,38 C39.4477334,38 39,38.3566497 39,38.7965673 L39,42.2034327 C39,42.6433504 39.4477334,43 40,43 C40.5522666,43 41,42.6433504 41,42.2034327 L41,38.7965673 C41,38.356756 40.5522666,38 40,38 Z" id="Shape"></path>
                </g>
                <text id="March-2017-ONplace-c" font-family="Montserrat-Regular, Montserrat" font-size="16" font-weight="normal">
                    <tspan x="120" y="55" fill="#1E9DF2">March 2017</tspan>
                    <tspan x="214.496" y="55" fill="#FFFFFF"></tspan>
                    <tspan x="120" y="74" fill="#FFFFFF">ONplace core team </tspan>
                    <tspan x="120" y="93" fill="#FFFFFF">formation</tspan>
                </text>
            </g>
            <g id="6" filter="url(#filter-6)" transform="translate(20.000000, 825.000000)">
                <g id="element" transform="translate(230.000000, 0.000000)" fill-rule="nonzero">
                    <polygon id="Triangle" fill="#2B8ED1" transform="translate(68.075685, 85.465173) rotate(-30.000000) translate(-68.075685, -85.465173) " points="68.0756846 58.185173 99.7556848 112.745173 36.3956848 112.745173"></polygon>
                    <polygon id="Triangle" fill="#2F9AE0" points="54 62.6800002 108.56 31 108.56 94.36"></polygon>
                    <polygon id="Triangle" fill="#2A8FD1" transform="translate(27.280000, 62.680000) scale(-1, 1) translate(-27.280000, -62.680000) " points="0 62.6800002 54.56 31 54.56 94.36"></polygon>
                    <polygon id="Triangle" fill="#2585C2" transform="translate(41.075685, 85.465173) scale(-1, 1) rotate(-30.000000) translate(-41.075685, -85.465173) " points="41.0756847 58.185173 72.7556848 112.745173 9.39568479 112.745173"></polygon>
                    <polygon id="Triangle" fill="#2F9AE0" transform="translate(41.075685, 39.465173) rotate(150.000000) translate(-41.075685, -39.465173) " points="41.0756847 12.185173 72.7556848 66.745173 9.39568479 66.745173"></polygon>
                    <polygon id="Triangle" fill="#209BF2" transform="translate(68.075685, 39.465173) scale(-1, 1) rotate(150.000000) translate(-68.075685, -39.465173) " points="68.0756848 12.185173 99.7556848 66.745173 36.3956848 66.745173"></polygon>
                </g>
                <g id="monitor" transform="translate(260.000000, 40.000000)" fill="#FFFFFF" fill-rule="nonzero">
                    <path d="M20.5692453,8.51722038 L17.482597,5.75049892 C17.296002,5.58319275 16.9934231,5.58314132 16.806656,5.75049892 C16.6200035,5.91775365 16.6200035,6.18902202 16.806656,6.35632819 L19.5553911,8.82016073 L16.806656,11.2839419 C16.6200035,11.4511966 16.6200035,11.722465 16.806656,11.8897712 C16.9000395,11.9734757 17.022333,12.0152765 17.1446265,12.0152765 C17.26692,12.0152765 17.3892708,11.9734242 17.4825396,11.8898226 L20.5691879,9.12310109 C20.7558977,8.95579492 20.7558977,8.68452655 20.5692453,8.51722038 Z" id="Shape"></path>
                    <path d="M6.47299245,8.82014147 L9.22167018,6.35630889 C9.40832259,6.18905415 9.40832259,5.91778579 9.22167018,5.75047962 C9.03507511,5.58317345 8.73243894,5.58317345 8.54578652,5.75047962 L5.45913826,8.51720112 C5.27248582,8.68445585 5.27248582,8.95572422 5.45913826,9.12303039 L8.54578652,11.8897519 C8.63905535,11.9734564 8.76140621,12.0152572 8.88369968,12.0152572 C9.00599316,12.0152572 9.12834397,11.973405 9.22161284,11.8897005 C9.40826525,11.7224457 9.40826525,11.4511774 9.22161284,11.2838712 L6.47299245,8.82014147 Z" id="Shape"></path>
                    <path d="M14.4492116,4.59043095 C14.1976266,4.51896332 13.928948,4.64395451 13.8493311,4.86946304 L11.0153577,12.8885902 C10.935626,13.1141501 11.075013,13.3549291 11.3266554,13.4263967 C11.3747238,13.4400733 11.4233085,13.4465002 11.4711475,13.4465002 C11.6739183,13.4465002 11.8621195,13.3298383 11.9266505,13.1473646 L14.7605093,5.12823744 C14.8402409,4.90262607 14.7008539,4.66184711 14.4492116,4.59043095 Z" id="Shape"></path>
                    <path d="M45.950495,0.0740496382 L3.97386181,0.0740496382 C1.78274808,0.0740496382 0,1.84147723 0,4.01376108 L0,9.73926749 C0,10.1841453 0.363804248,10.5447265 0.812440901,10.5447265 C1.26107755,10.5447265 1.6248818,10.1840486 1.6248818,9.73926749 L1.6248818,4.01376108 C1.6248818,2.72958953 2.67865627,1.68496761 3.97386181,1.68496761 L45.950495,1.68496761 C47.2457982,1.68496761 48.2994752,2.7296862 48.2994752,4.01376108 L48.2994752,31.5079277 L43.2085557,31.5079277 C42.7598216,31.5079277 42.3961149,31.8686055 42.3961149,32.3133867 C42.3961149,32.7581678 42.7599191,33.1188456 43.2085557,33.1188456 L48.2994752,33.1188456 L48.2994752,34.5952949 C48.2994752,35.8794664 47.2457007,36.9240884 45.950495,36.9240884 L30.7966976,36.9240884 L19.1276593,36.9240884 L3.97386181,36.9240884 C2.67855876,36.9240884 1.6248818,35.8793698 1.6248818,34.5952949 L1.6248818,33.1188456 L40.5003546,33.1188456 C40.9490887,33.1188456 41.3127954,32.7581678 41.3127954,32.3133867 C41.3127954,31.8686055 40.9489911,31.5079277 40.5003546,31.5079277 L1.6248818,31.5079277 L1.6248818,12.4242919 C1.6248818,11.979414 1.26107755,11.6188329 0.812440901,11.6188329 C0.363804248,11.6188329 0,11.979414 0,12.4242919 L0,34.5954882 C0,36.7678687 1.78274808,38.5351998 3.97386181,38.5351998 L17.8967118,38.5351998 L15.8983724,43.170069 L11.9947168,43.170069 C11.5459826,43.170069 11.1822759,43.5307468 11.1822759,43.9755279 C11.1822759,44.4203093 11.5460801,44.7809871 11.9947168,44.7809871 L37.9295426,44.7809871 C38.378277,44.7809871 38.7419837,44.4203093 38.7419837,43.9755279 C38.7419837,43.5307468 38.3781794,43.170069 37.9295426,43.170069 L34.025887,43.170069 L32.0275476,38.5351998 L45.9503975,38.5351998 C48.1416089,38.5351998 49.9242596,36.7678687 49.9242596,34.5954882 L49.9242596,4.01376108 C49.9243567,1.84147723 48.1416089,0.0740496382 45.950495,0.0740496382 Z M32.2587402,43.1699723 L17.6656167,43.1699723 L19.0539428,39.9498764 L30.8705116,39.9498764 L32.2587402,43.1699723 Z" id="Shape"></path>
                    <path d="M25.6373274,34.3836831 C25.4506961,34.1027585 25.0929374,33.9680964 24.7644312,34.049493 C24.4214938,34.1344664 24.1680691,34.4408154 24.1510052,34.7909561 C24.1155121,35.519272 25.0389177,35.9151377 25.5483021,35.3876066 C25.8079673,35.1186692 25.8484333,34.6938022 25.6373274,34.3836831 Z" id="Shape"></path>
                </g>
                <text id="OnPlace" font-family="LucidaGrande, Lucida Grande" font-size="10" font-weight="normal" fill="#FFFFFF">
                    <tspan x="268.391602" y="69">OnPlace</tspan>
                </text>
                <text id="April-2017---Develop" font-family="Montserrat-Regular, Montserrat" font-size="16" font-weight="normal">
                    <tspan x="136.456" y="55" fill="#1E9DF2">April 2017</tspan>
                    <tspan x="219" y="55" fill="#F8E71C"></tspan>
                    <tspan x="30.456" y="74" fill="#FFFFFF">- Development of alpha </tspan>
                    <tspan x="52.36" y="93" fill="#FFFFFF">version on Ethereum </tspan>
                    <tspan x="38.648" y="112" fill="#FFFFFF">Blochkchain Contracts</tspan>
                    <tspan x="17.976" y="131" fill="#FFFFFF">- Launching closed alpha </tspan>
                    <tspan x="79.32" y="150" fill="#FFFFFF">for early investors</tspan>
                    <tspan x="41.832" y="169" fill="#FFFFFF">- Implementation and </tspan>
                    <tspan x="69.208" y="188" fill="#FFFFFF">testing of AI based </tspan>
                    <tspan x="70.488" y="207" fill="#FFFFFF">decentralized IPFS </tspan>
                    <tspan x="147.128" y="226" fill="#FFFFFF">solutions</tspan>
                </text>
            </g>
            <g id="7" filter="url(#filter-7)" transform="translate(20.000000, 1105.000000)">
                <g id="element" fill-rule="nonzero">
                    <polygon id="Triangle" fill="#2B8ED1" transform="translate(68.075685, 85.465173) rotate(-30.000000) translate(-68.075685, -85.465173) " points="68.0756846 58.185173 99.7556848 112.745173 36.3956848 112.745173"></polygon>
                    <polygon id="Triangle" fill="#2F9AE0" points="54 62.6800002 108.56 31 108.56 94.36"></polygon>
                    <polygon id="Triangle" fill="#2A8FD1" transform="translate(27.280000, 62.680000) scale(-1, 1) translate(-27.280000, -62.680000) " points="0 62.6800002 54.56 31 54.56 94.36"></polygon>
                    <polygon id="Triangle" fill="#2585C2" transform="translate(41.075685, 85.465173) scale(-1, 1) rotate(-30.000000) translate(-41.075685, -85.465173) " points="41.0756847 58.185173 72.7556848 112.745173 9.39568479 112.745173"></polygon>
                    <polygon id="Triangle" fill="#2F9AE0" transform="translate(41.075685, 39.465173) rotate(150.000000) translate(-41.075685, -39.465173) " points="41.0756847 12.185173 72.7556848 66.745173 9.39568479 66.745173"></polygon>
                    <polygon id="Triangle" fill="#209BF2" transform="translate(68.075685, 39.465173) scale(-1, 1) rotate(150.000000) translate(-68.075685, -39.465173) " points="68.0756848 12.185173 99.7556848 66.745173 36.3956848 66.745173"></polygon>
                </g>
                <text id="CF-1.1-mln-$" font-family="Montserrat-Regular, Montserrat" font-size="18" font-weight="normal" fill="#FFFFFF">
                    <tspan x="44.052" y="58">CF</tspan>
                    <tspan x="13.425" y="80">1.1 mln $</tspan>
                </text>
                <text id="May-2017-Attracted-f" font-family="Montserrat-Regular, Montserrat" font-size="16" font-weight="normal">
                    <tspan x="121" y="55" fill="#1E9DF2">May 2017</tspan>
                    <tspan x="197.704" y="55" fill="#FFFFFF"></tspan>
                    <tspan x="121" y="74" fill="#FFFFFF">Attracted first investment </tspan>
                    <tspan x="121" y="93" fill="#FFFFFF">of $1 100 000 via </tspan>
                    <tspan x="121" y="112" fill="#FFFFFF">crowdfunding platform</tspan>
                </text>
            </g>
            <g id="8" filter="url(#filter-8)" transform="translate(20.000000, 1265.000000)">
                <g id="element" transform="translate(230.000000, 0.000000)" fill-rule="nonzero">
                    <polygon id="Triangle" fill="#2B8ED1" transform="translate(68.075685, 85.465173) rotate(-30.000000) translate(-68.075685, -85.465173) " points="68.0756846 58.185173 99.7556848 112.745173 36.3956848 112.745173"></polygon>
                    <polygon id="Triangle" fill="#2F9AE0" points="54 62.6800002 108.56 31 108.56 94.36"></polygon>
                    <polygon id="Triangle" fill="#2A8FD1" transform="translate(27.280000, 62.680000) scale(-1, 1) translate(-27.280000, -62.680000) " points="0 62.6800002 54.56 31 54.56 94.36"></polygon>
                    <polygon id="Triangle" fill="#2585C2" transform="translate(41.075685, 85.465173) scale(-1, 1) rotate(-30.000000) translate(-41.075685, -85.465173) " points="41.0756847 58.185173 72.7556848 112.745173 9.39568479 112.745173"></polygon>
                    <polygon id="Triangle" fill="#2F9AE0" transform="translate(41.075685, 39.465173) rotate(150.000000) translate(-41.075685, -39.465173) " points="41.0756847 12.185173 72.7556848 66.745173 9.39568479 66.745173"></polygon>
                    <polygon id="Triangle" fill="#209BF2" transform="translate(68.075685, 39.465173) scale(-1, 1) rotate(150.000000) translate(-68.075685, -39.465173) " points="68.0756848 12.185173 99.7556848 66.745173 36.3956848 66.745173"></polygon>
                </g>
                <g id="golden-gate-bridge" transform="translate(253.000000, 44.000000)" fill="#FFFFFF" fill-rule="nonzero">
                    <path d="M63.4117444,20.8371637 C63.7366084,20.8371637 64,20.572508 64,20.2460846 C64,19.9196612 63.7366084,19.6550055 63.4117444,19.6550055 L60.0910416,19.6550055 L60.0910416,18.0286514 C61.1601963,18.2698116 62.271264,18.397928 63.4117444,18.397928 C63.7366084,18.397928 64,18.1332724 64,17.8068489 C64,17.4804255 63.7366084,17.2157698 63.4117444,17.2157698 C55.7055965,17.2157698 49.4364098,10.9163443 49.4364098,3.17335591 C49.4364098,2.84693248 49.1730185,2.58227681 48.8481541,2.58227681 L48.2940176,2.58227681 L48.2940176,0.591079098 C48.2940176,0.264655667 48.030626,0 47.705762,0 C47.380898,0 47.1175063,0.264655667 47.1175063,0.591079098 L47.1175063,2.58242458 L46.5635165,2.58242458 C46.2386525,2.58242458 45.9752613,2.84708025 45.9752613,3.17350368 C45.9752613,10.9164921 39.7059274,17.2159176 31.9999265,17.2159176 C24.2939256,17.2159176 18.0245918,10.9164921 18.0245918,3.17350368 C18.0245918,2.84708025 17.7612004,2.58242458 17.4363363,2.58242458 L16.8823466,2.58242458 L16.8823466,0.591079098 C16.8823466,0.264655667 16.6189552,0 16.294091,0 C15.9692269,0 15.7058354,0.264655667 15.7058354,0.591079098 L15.7058354,2.58242458 L15.1518458,2.58242458 C14.8269816,2.58242458 14.5635902,2.84708025 14.5635902,3.17350368 C14.5635902,10.9164921 8.29425647,17.2159176 0.588255571,17.2159176 C0.263391431,17.2159176 8.35961444e-15,17.4805733 8.35961444e-15,17.8069967 C8.35961444e-15,18.1334201 0.263391431,18.3980758 0.588255571,18.3980758 C1.72932431,18.3980758 2.84083321,18.2698116 3.91042892,18.0285036 L3.91042892,19.6551533 L0.588255571,19.6551533 C0.263391431,19.6551533 0,19.919809 0,20.2462324 C0,20.5726558 0.263391431,20.8373115 0.588255571,20.8373115 L14.5635902,20.8373115 L14.5635902,22.0933545 L0.588255571,22.0933545 C0.263391431,22.0933545 0,22.3580102 0,22.6844336 C0,23.0108571 0.263391431,23.2755127 0.588255571,23.2755127 L14.5635902,23.2755127 L14.5635902,30.989095 L14.1531349,30.989095 C13.8282708,30.989095 13.5648793,31.2537507 13.5648793,31.5801741 L13.5648793,35.8165857 C13.0292726,35.8282596 12.4901364,35.6394098 12.0727691,35.2466377 C10.8109609,34.0590121 8.834128,34.0590121 7.57217276,35.24649 C6.76126244,36.0098686 5.49092457,36.0095731 4.68016133,35.24649 C4.44309432,35.0233576 4.07087559,35.0356225 3.84866206,35.2739752 C3.62659559,35.51218 3.63880189,35.8863331 3.87586888,36.1094655 C5.13767707,37.2969433 7.11450993,37.2967956 8.37646517,36.1093177 C9.18722841,35.3462346 10.4575663,35.3460868 11.2684766,36.1094655 C12.5304319,37.2969433 14.5072647,37.2967956 15.7690729,36.1093177 C16.5799832,35.3462346 17.850174,35.3460868 18.6609373,36.1094655 C19.9230396,37.2969433 21.8997254,37.2967956 23.1615336,36.1093177 C23.9724439,35.3462346 25.2426347,35.3460868 26.0535451,36.1094655 C27.3155003,37.2969433 29.2923332,37.2967956 30.5539943,36.1093177 C31.3647575,35.3463823 32.6350954,35.345939 33.4460057,36.1094655 C34.7081081,37.2967956 36.6846468,37.2969433 37.946602,36.1093177 C38.7575123,35.3460868 40.027703,35.3462346 40.8386135,36.1094655 C42.1005686,37.2969433 44.0774018,37.2967956 45.3390626,36.1093177 C46.1501202,35.3460868 47.420311,35.3462346 48.231074,36.1094655 C49.4930295,37.2969433 51.4698622,37.2967956 52.7316702,36.1093177 C53.5427278,35.3460868 54.8129186,35.3462346 55.623682,36.1094655 C56.2545861,36.7032044 57.0643196,36.9999261 57.8740535,36.9999261 C58.6836402,36.9999261 59.493374,36.7030566 60.1242782,36.1094655 C60.3613452,35.8861853 60.3735516,35.51218 60.1514849,35.2739752 C59.9294185,35.035918 59.5572,35.0238009 59.3199856,35.24649 C58.5093698,36.0098686 57.2391789,36.0097209 56.4279742,35.2466377 C55.1663134,34.0590121 53.1891863,34.0588643 51.927378,35.24649 C51.5100105,35.6395576 50.9708745,35.8285551 50.4352679,35.8168813 L50.4352679,31.5801741 C50.4352679,31.2537507 50.1718763,30.989095 49.8470123,30.989095 L49.4364098,30.989095 L49.4364098,23.2755127 L63.4117444,23.2755127 C63.7366084,23.2755127 64,23.0108571 64,22.6844336 C64,22.3580102 63.7366084,22.0933545 63.4117444,22.0933545 L49.4364098,22.0933545 L49.4364098,20.8373115 L63.4117444,20.8373115 L63.4117444,20.8371637 Z M58.9143836,19.6550055 L56.180466,19.6550055 L56.180466,16.5493282 C57.0446131,17.0229303 57.9593506,17.4145202 58.9143836,17.7133106 L58.9143836,19.6550055 Z M55.0041019,15.8327925 L55.0041019,19.6550055 L52.26989,19.6550055 L52.26989,13.4794111 C53.0843298,14.3676552 54.0020082,15.1586668 55.0041019,15.8327925 Z M51.0933787,12.0281641 L51.0933787,19.6550055 L49.4364098,19.6550055 L49.4364098,9.0542974 C49.8784839,10.1112946 50.4361502,11.1080017 51.0933787,12.0281641 Z M45.9752613,22.0932068 L18.0245918,22.0932068 L18.0245918,20.8371637 L45.9752613,20.8371637 L45.9752613,22.0932068 Z M15.7401013,3.76443501 L16.8480807,3.76443501 L16.8480807,30.9885039 L15.7401013,30.9885039 L15.7401013,3.76443501 Z M36.4980227,19.6550055 L36.4980227,17.7130151 C37.4530556,17.4142247 38.367793,17.022487 39.2319403,16.5488848 L39.2319403,19.6550055 L36.4980227,19.6550055 Z M35.3215115,19.6550055 L32.5875938,19.6550055 L32.5875938,18.3853676 C33.5229202,18.3493118 34.4366281,18.2281406 35.3215115,18.0285036 L35.3215115,19.6550055 Z M31.4110827,19.6550055 L28.6786355,19.6550055 L28.6786355,18.0285036 C29.5629307,18.2281406 30.4763445,18.3493118 31.4110827,18.3853676 L31.4110827,19.6550055 Z M27.5021244,19.6550055 L24.7682066,19.6550055 L24.7682066,16.5488848 C25.6323541,17.022487 26.5470915,17.4140769 27.5021244,17.7131629 L27.5021244,19.6550055 Z M47.1517721,3.76443501 L48.2597514,3.76443501 L48.2597514,30.9885039 L47.1517721,30.9885039 L47.1517721,3.76443501 Z M45.9752613,19.6550055 L44.3187333,19.6550055 L44.3187333,12.0274253 C44.9756679,11.1072629 45.5331871,10.1109991 45.9752613,9.0542974 L45.9752613,19.6550055 Z M43.1422224,13.47882 L43.1422224,19.6551533 L40.4083044,19.6551533 L40.4083044,15.8323492 C41.410398,15.1580757 42.3279294,14.3670641 43.1422224,13.47882 Z M23.5915484,15.8323492 L23.5915484,19.6550055 L20.8574836,19.6550055 L20.8574836,13.4786722 C21.6719234,14.3670641 22.5896021,15.1582235 23.5915484,15.8323492 Z M19.6809724,12.0272775 L19.6809724,19.6550055 L18.0245918,19.6550055 L18.0245918,9.0542974 C18.4666659,10.1109991 19.0241851,11.1072629 19.6809724,12.0272775 Z M11.7312867,13.4780812 L11.7312867,19.6551533 L8.99736894,19.6551533 L8.99736894,15.8319059 C9.99931524,15.1574846 10.9169939,14.3663253 11.7312867,13.4780812 Z M5.08694002,17.7130151 C6.04197296,17.4140769 6.95671036,17.0223392 7.8208578,16.5485893 L7.8208578,19.6550055 L5.08694002,19.6550055 L5.08694002,17.7130151 Z M12.9077978,19.6550055 L12.9077978,12.0263909 C13.5644381,11.106524 14.1216632,10.1105558 14.5635902,9.0542974 L14.5635902,19.6550055 L12.9077978,19.6550055 Z M14.9646334,35.2463422 C14.8938957,35.3129864 14.8184519,35.371651 14.7412434,35.4266213 L14.7412434,32.1712532 L17.8472328,32.1712532 L17.8472328,34.4179449 C16.8411687,34.2220021 15.7608373,34.4972972 14.9646334,35.2463422 Z M49.0353666,35.24649 C48.2394568,34.4972972 47.1589783,34.2217066 46.1527672,34.4179449 L46.1527672,32.1712532 L49.2586096,32.1712532 L49.2586096,35.4267691 C49.181401,35.3717987 49.1061042,35.3131341 49.0353666,35.24649 Z M45.5645116,30.989095 C45.2396476,30.989095 44.976256,31.2537507 44.976256,31.5801741 L44.976256,34.9002654 C44.8221331,35.0020788 44.6734517,35.1158615 44.5347703,35.24649 C43.7241541,36.0098686 42.4538162,36.0097209 41.6427586,35.2466377 C40.3812449,34.0590121 38.4041178,34.0588643 37.1421625,35.24649 C36.3312522,36.0098686 35.0610614,36.0094253 34.2501511,35.2466377 C32.98849,34.0588643 31.01151,34.0591598 29.7497019,35.24649 C28.9387915,36.0098686 27.6684537,36.0094253 26.8576904,35.2466377 C25.5960293,34.0590121 23.6190494,34.0590121 22.3570941,35.24649 C21.5463309,36.0095731 20.275993,36.0095731 19.4650827,35.2466377 C19.3264014,35.1160092 19.1777198,35.0023743 19.0237439,34.9005609 L19.0237439,31.5801741 C19.0237439,31.2537507 18.7603525,30.989095 18.4354884,30.989095 L18.0245918,30.989095 L18.0245918,23.2755127 L45.9752613,23.2755127 L45.9752613,30.989095 L45.5645116,30.989095 Z" id="Shape"></path>
                </g>
                <text id="November-2017-Office" font-family="Montserrat-Regular, Montserrat" font-size="16" font-weight="normal">
                    <tspan x="91.592" y="55" fill="#1E9DF2">November 2017</tspan>
                    <tspan x="11.688" y="74" fill="#FFFFFF">Office expansion, opening </tspan>
                    <tspan x="12.28" y="93" fill="#FFFFFF">headquarter office in USA </tspan>
                </text>
            </g>
            <g id="9" filter="url(#filter-9)" transform="translate(20.000000, 1425.000000)">
                <g id="element" fill-rule="nonzero">
                    <polygon id="Triangle" fill="#2B8ED1" transform="translate(68.075685, 85.465173) rotate(-30.000000) translate(-68.075685, -85.465173) " points="68.0756846 58.185173 99.7556848 112.745173 36.3956848 112.745173"></polygon>
                    <polygon id="Triangle" fill="#2F9AE0" points="54 62.6800002 108.56 31 108.56 94.36"></polygon>
                    <polygon id="Triangle" fill="#2A8FD1" transform="translate(27.280000, 62.680000) scale(-1, 1) translate(-27.280000, -62.680000) " points="0 62.6800002 54.56 31 54.56 94.36"></polygon>
                    <polygon id="Triangle" fill="#2585C2" transform="translate(41.075685, 85.465173) scale(-1, 1) rotate(-30.000000) translate(-41.075685, -85.465173) " points="41.0756847 58.185173 72.7556848 112.745173 9.39568479 112.745173"></polygon>
                    <polygon id="Triangle" fill="#2F9AE0" transform="translate(41.075685, 39.465173) rotate(150.000000) translate(-41.075685, -39.465173) " points="41.0756847 12.185173 72.7556848 66.745173 9.39568479 66.745173"></polygon>
                    <polygon id="Triangle" fill="#209BF2" transform="translate(68.075685, 39.465173) scale(-1, 1) rotate(150.000000) translate(-68.075685, -39.465173) " points="68.0756848 12.185173 99.7556848 66.745173 36.3956848 66.745173"></polygon>
                </g>
                <text id="TGE" font-family="Montserrat-Regular, Montserrat" font-size="20" font-weight="normal" fill="#FFBD4A">
                    <tspan x="36.08" y="70">TGE</tspan>
                </text>
                <text id="February-2018-TGE" font-family="Montserrat-Regular, Montserrat" font-size="16" font-weight="normal">
                    <tspan x="120" y="55" fill="#FFBD4A">February 2018</tspan>
                    <tspan x="235.12" y="55" fill="#FFFFFF"></tspan>
                    <tspan x="120" y="74" fill="#FFFFFF">TGE</tspan>
                </text>
            </g>
            <g id="10" filter="url(#filter-10)" transform="translate(21.000000, 1585.000000)">
                <g id="element" transform="translate(229.000000, 0.000000)" fill-rule="nonzero">
                    <polygon id="Triangle" fill="#2B8ED1" transform="translate(68.075685, 85.465173) rotate(-30.000000) translate(-68.075685, -85.465173) " points="68.0756846 58.185173 99.7556848 112.745173 36.3956848 112.745173"></polygon>
                    <polygon id="Triangle" fill="#2F9AE0" points="54 62.6800002 108.56 31 108.56 94.36"></polygon>
                    <polygon id="Triangle" fill="#2A8FD1" transform="translate(27.280000, 62.680000) scale(-1, 1) translate(-27.280000, -62.680000) " points="0 62.6800002 54.56 31 54.56 94.36"></polygon>
                    <polygon id="Triangle" fill="#2585C2" transform="translate(41.075685, 85.465173) scale(-1, 1) rotate(-30.000000) translate(-41.075685, -85.465173) " points="41.0756847 58.185173 72.7556848 112.745173 9.39568479 112.745173"></polygon>
                    <polygon id="Triangle" fill="#2F9AE0" transform="translate(41.075685, 39.465173) rotate(150.000000) translate(-41.075685, -39.465173) " points="41.0756847 12.185173 72.7556848 66.745173 9.39568479 66.745173"></polygon>
                    <polygon id="Triangle" fill="#209BF2" transform="translate(68.075685, 39.465173) scale(-1, 1) rotate(150.000000) translate(-68.075685, -39.465173) " points="68.0756848 12.185173 99.7556848 66.745173 36.3956848 66.745173"></polygon>
                </g>
                <text id="August-2018-Putting" font-family="Montserrat-Regular, Montserrat" font-size="16" font-weight="normal">
                    <tspan x="118.152" y="55" fill="#FFBD4A">August 2018</tspan>
                    <tspan x="1.672" y="74" fill="#FFFFFF">Putting into circulation the </tspan>
                    <tspan x="44.312" y="93" fill="#FFFFFF">first pool of tokenized </tspan>
                    <tspan x="48.056" y="112" fill="#FFFFFF">assets based on PATS</tspan>
                </text>
                <g id="coin" transform="translate(263.000000, 41.000000)">
                    <path d="M24,44 C13.5065714,44 5,34.1502857 5,22 C5,9.84971429 13.5065714,0 24,0 C34.4934286,0 43,9.84971429 43,22 C43,34.1502857 34.4934286,44 24,44" id="XMLID_99_" stroke="#FFBD4A" stroke-width="2" fill-rule="nonzero"></path>
                    <path d="M24,36 C17.3725714,36 12,29.732 12,22 C12,14.268 17.3725714,8 24,8 C30.6274286,8 36,14.268 36,22 C36,29.732 30.6274286,36 24,36" id="XMLID_99_" stroke="#FFBD4A" stroke-width="2" fill-rule="nonzero"></path>
                    <path d="M11.7786438,39.3377483 L7.37837838,39.3377483 C7.81850167,39.7908909 8.27355778,40.2206666 8.74382846,40.6228872 C7.4723023,39.6800886 6.30407529,38.562202 5.26362742,37.2980132 L9.36486486,37.2980132 C8.97176418,36.738543 8.59763554,36.1554702 8.24475559,35.5496689 L3.96846915,35.5496689 C2.54097359,33.4053485 1.4445107,30.941649 0.769505039,28.2649007 L5.35166327,28.2649007 C5.55272292,29.061789 5.79115784,29.8397648 6.06457917,30.5960265 L1.7027027,30.5960265 C1.89319226,31.1922119 2.10385129,31.7735364 2.32795665,32.3443709 L6.77602514,32.3443709 C8.01322497,35.0681781 9.72383202,37.4498157 11.7786438,39.3377483 Z M13.3672031,40.6476678 C15.6317373,42.316398 18.221874,43.4310706 21,43.8302857 C20.2485818,43.9379286 19.4849455,44 18.7090909,44 C15.3191622,44 12.139812,42.9398392 9.39773929,41.0860927 L13.9054054,41.0860927 C13.7240843,40.9437214 13.5446343,40.7975741 13.3672031,40.6476678 Z M12.1029924,4.37086093 C11.3925897,4.99482188 10.7211625,5.67671619 10.0937821,6.41059603 L5.74724469,6.41059603 C5.32393109,6.96656954 4.92144839,7.54964238 4.54054054,8.1589404 L8.75043175,8.1589404 C7.38554434,10.1377714 6.30710964,12.400784 5.58934931,14.8609272 L1.0070623,14.8609272 C1.21111307,14.1611464 1.44432806,13.4772919 1.7050013,12.8113695 C1.70423484,12.8146434 1.70346864,12.8179176 1.7027027,12.8211921 L6.13145087,12.8211921 C6.34093863,11.9269139 6.56739194,11.0523046 6.81081081,10.1986755 L2.91676832,10.1986755 C6.23731222,4.06728344 12.0692619,0 18.7090909,0 C19.4849455,0 20.2485818,0.0620714286 21,0.169714286 C18.6490063,0.507550696 16.4326396,1.35775618 14.4342985,2.62251656 L10.4642297,2.62251656 C9.68641672,3.13827815 8.94056863,3.72222517 8.22972973,4.37086093 L12.1029924,4.37086093 Z M5.14780858,16.6092715 C4.98450665,17.3712616 4.85502763,18.1490804 4.76135853,18.9403974 L0.427420625,18.9403974 C0.362627919,19.5164768 0.315789819,20.1004238 0.283783784,20.6887417 L4.61451064,20.6887417 C4.59281752,21.1225597 4.58181818,21.5597652 4.58181818,22 C4.58181818,23.5481774 4.71784967,25.0588917 4.97662304,26.5165563 L0.394649049,26.5165563 C0.275893243,25.8473033 0.182998262,25.1668879 0.117248947,24.4768212 L4.54054054,24.4768212 C4.49455663,23.8998675 4.46414791,23.3167947 4.44857272,22.7284768 L0.0100632364,22.7284768 C0.0033716943,22.4866179 0,22.243772 0,22 C0,20.0897687 0.207039187,18.2364011 0.596170118,16.4692328 C0.586494106,16.5158431 0.576957744,16.562522 0.567567568,16.6092715 L5.14780858,16.6092715 Z" id="Combined-Shape" fill="#FFBD4A" fill-rule="nonzero"></path>
                    <path d="M23.5668188,40 L23.4996092,40 C22.952555,40 22.4015933,39.9664358 21.8623541,39.9009057 C21.4333073,39.848162 21.1277384,39.4509856 21.1785363,39.0122536 C21.2301157,38.5735216 21.6216502,38.2674481 22.047571,38.3137986 C22.5258527,38.3721364 23.014294,38.4017048 23.4996092,38.4017048 C23.9317821,38.4017048 24.31472,38.759723 24.31472,39.2008524 C24.31472,39.6419819 23.9997731,40 23.5668188,40 M28.1112764,39.1393181 C27.7955479,39.1393181 27.4977941,38.9419286 27.3797867,38.6214704 C27.227393,38.2083111 27.4313661,37.747203 27.8354047,37.5921684 C28.2855522,37.4187533 28.7349182,37.2149707 29.168654,36.9872136 C29.553155,36.7842302 30.0236217,36.9400639 30.2213427,37.3332445 C30.4182822,37.725626 30.26667,38.207512 29.8821691,38.4088972 C29.3952908,38.6646244 28.8927824,38.8915823 28.3863665,39.0873735 C28.2964933,39.122536 28.2034941,39.1393181 28.1112764,39.1393181 M17.5335922,38.5287693 C17.4148032,38.5287693 17.2936698,38.5007991 17.1803514,38.4416622 C16.6997252,38.191529 16.223788,37.9110282 15.766607,37.6041556 C15.4055512,37.362813 15.3047369,36.8681406 15.5407518,36.4981353 C15.7783296,36.1297283 16.2613003,36.0258391 16.6231376,36.2671817 C17.0318653,36.5412893 17.4577861,36.7938199 17.8876144,37.0167821 C18.2721154,37.216569 18.426072,37.6976558 18.2306955,38.0908364 C18.0931505,38.3689398 17.8180604,38.5287693 17.5335922,38.5287693 M33.2496786,35.6854022 C33.051176,35.6854022 32.851892,35.6078849 32.6994983,35.4536494 C32.393148,35.142781 32.3908034,34.6369206 32.6948093,34.3236548 C33.0347644,33.9736281 33.3653415,33.5964305 33.6771624,33.2032499 C33.949908,32.8612147 34.4422568,32.8092701 34.7767414,33.0873735 C35.111226,33.3654768 35.1628054,33.8689398 34.8900597,34.2117741 C34.5454156,34.6449121 34.1804523,35.061268 33.8045479,35.4488546 C33.6513727,35.6062866 33.4497441,35.6854022 33.2496786,35.6854022 M12.7601533,34.5602025 C12.534298,34.5602025 12.3100058,34.460309 12.1552676,34.2685136 C11.816094,33.8449654 11.490206,33.3974427 11.1877631,32.9379329 C10.9462778,32.5719233 11.04084,32.0748535 11.3987698,31.8279169 C11.755918,31.5809803 12.2420148,31.676878 12.4835001,32.0436867 C12.7593718,32.4624401 13.0555626,32.8700053 13.3642574,33.2543953 C13.6377846,33.5956313 13.5893312,34.0990943 13.2556281,34.3795951 C13.1110495,34.5010655 12.9344291,34.5602025 12.7601533,34.5602025 M36.6851791,30.4549814 C36.5804573,30.4549814 36.474954,30.4334044 36.3733582,30.3886521 C35.9771346,30.2120405 35.7966068,29.7413426 35.9685381,29.3361747 C36.1646961,28.877464 36.343661,28.4011721 36.5007437,27.9224827 C36.6382888,27.5053277 37.0814027,27.2791689 37.4909118,27.4198189 C37.8996395,27.561268 38.1200242,28.0135855 37.9824791,28.4323388 C37.8105478,28.9541822 37.6151713,29.4736281 37.4018202,29.9746937 C37.2728717,30.2751731 36.9852774,30.4549814 36.6851791,30.4549814 M9.78105226,29.0428876 C9.45594575,29.0428876 9.1519399,28.8327118 9.04096604,28.5010655 C8.86825321,27.9832179 8.71507802,27.4501865 8.58534802,26.9163559 C8.48062621,26.4880128 8.73539718,26.0548748 9.15428442,25.9485882 C9.57160864,25.8399041 9.99752943,26.1020245 10.1014697,26.5303676 C10.2210402,27.0202451 10.3617112,27.5101225 10.520357,27.9848162 C10.659465,28.4027704 10.4414249,28.8566862 10.0334787,28.9989345 C9.95063907,29.0285029 9.86467341,29.0428876 9.78105226,29.0428876 M38.161444,24.3303143 C38.1411249,24.3303143 38.1208057,24.3295152 38.1004866,24.3279169 C37.6698767,24.2935535 37.3486777,23.9091636 37.381501,23.4688332 C37.4182318,22.9845498 37.4369879,22.4898775 37.4369879,22 C37.4369879,21.5588705 37.7871026,21.1752797 38.218494,21.1752797 C38.6498853,21.1752797 39,21.5069259 39,21.9480554 L39,22 C39,22.5314331 38.9796808,23.066862 38.939824,23.5927011 C38.9085638,24.0114544 38.5654826,24.3303143 38.161444,24.3303143 M8.78150604,22.8079382 C8.3501147,22.8079382 8,22.4587107 8,22.0175812 L8,22 C8,21.4549814 8.02110066,20.9067661 8.06252048,20.3721364 C8.09690675,19.9326052 8.47124814,19.606553 8.90342098,19.6385189 C9.33403081,19.6736814 9.65522979,20.0588705 9.62084352,20.4984017 C9.58254973,20.9922749 9.56301208,21.4973362 9.56301208,22 C9.56301208,22.4411295 9.21289737,22.8079382 8.78150604,22.8079382 M37.647213,18.0426212 C37.2978798,18.0426212 36.9798069,17.8012786 36.8907152,17.4392648 C36.7695818,16.947789 36.6281292,16.4587107 36.4687019,15.984017 C36.3288124,15.566862 36.5468525,15.112147 36.9547987,14.9690996 C37.3635264,14.8244539 37.8082033,15.0482152 37.9473114,15.4661694 C38.1208057,15.9824188 38.2747624,16.514651 38.4060554,17.0476825 C38.5115587,17.4760256 38.2575693,17.9099627 37.8394635,18.0178476 C37.7761615,18.0354289 37.712078,18.0426212 37.647213,18.0426212 M9.77089268,16.5905701 C9.68727154,16.5905701 9.60286888,16.5761854 9.51924774,16.5474161 C9.11052008,16.405967 8.89169839,15.9520511 9.03002496,15.534097 C9.20273779,15.014651 9.39889581,14.4960043 9.61380997,13.9933404 C9.78730431,13.5881726 10.2468299,13.4051678 10.6430534,13.5809803 C11.0384955,13.7575919 11.2190234,14.229089 11.0463105,14.6334576 C10.8485895,15.0945658 10.6688431,15.5708578 10.5109789,16.0471497 C10.3992235,16.3803942 10.0967807,16.5905701 9.77089268,16.5905701 M35.1463937,12.2807672 C34.8955303,12.2807672 34.6501374,12.1576985 34.4985252,11.9291422 C34.2218721,11.5119872 33.9248998,11.1052211 33.6154234,10.7208311 C33.3411148,10.3803942 33.3887866,9.87613213 33.7217082,9.59563133 C34.0546298,9.31513053 34.5477601,9.36387853 34.8220687,9.7043154 C35.1620238,10.1270645 35.4886934,10.573788 35.7926992,11.0332978 C36.0349661,11.3985083 35.9411854,11.8955781 35.5840371,12.1433138 C35.4496181,12.2360149 35.2980059,12.2807672 35.1463937,12.2807672 M12.7374896,11.0652637 C12.5639953,11.0652637 12.3889379,11.0061268 12.2435778,10.8846564 C11.9090932,10.6057539 11.8598583,10.1022909 12.1333854,9.76025573 C12.4780296,9.32871604 12.8437744,8.9131593 13.2204603,8.52557272 C13.5252477,8.21390517 14.019941,8.21150773 14.3255099,8.52237613 C14.6318602,8.83404369 14.6334232,9.33910495 14.3294174,9.6523708 C13.9886808,10.0031966 13.6565407,10.3795951 13.3431568,10.7719766 C13.1899816,10.9653703 12.9649079,11.0652637 12.7374896,11.0652637 M30.776212,7.84469899 C30.6300703,7.84469899 30.4823657,7.80314331 30.3510727,7.71523708 C29.942345,7.44272776 29.5156427,7.19179542 29.0834699,6.96883324 C28.6989689,6.7698455 28.5442307,6.28955781 28.7388257,5.89557805 C28.9334207,5.50319659 29.4023244,5.34256793 29.7883883,5.54235482 C30.2713591,5.79088972 30.7472962,6.07139052 31.2036958,6.37586574 C31.5655331,6.61720831 31.6679104,7.11267981 31.4318955,7.48188599 C31.2818464,7.71763452 31.0325459,7.84469899 30.776212,7.84469899 M17.5054579,7.08550879 C17.2209897,7.08550879 16.9466811,6.92647842 16.8083546,6.64917421 C16.6121965,6.25599361 16.7653717,5.77490677 17.1498727,5.57432072 C17.636751,5.32099094 18.1400408,5.09323388 18.6472383,4.89984017 C19.0504954,4.74480554 19.5014244,4.95418221 19.6530365,5.36814065 C19.8038672,5.78129995 19.5991126,6.24160895 19.1942925,6.39664358 C18.742582,6.56925946 18.293216,6.77144379 17.8586987,6.9984017 C17.7461618,7.05753863 17.6242469,7.08550879 17.5054579,7.08550879 M25.0126049,5.68779968 C24.9821262,5.68779968 24.9516475,5.68620139 24.9211687,5.68220565 C24.4507021,5.62626532 23.9724204,5.59829515 23.4996092,5.59829515 C23.0682179,5.59829515 22.7016916,5.24027704 22.7016916,4.79914758 C22.7016916,4.35801811 23.0353947,4 23.466786,4 L23.4996092,4 C24.0325964,4 24.5718355,4.0319659 25.1016966,4.09509856 C25.5299619,4.14544486 25.8378753,4.54182206 25.7878589,4.98055408 C25.7425316,5.38811934 25.403358,5.68779968 25.0126049,5.68779968" id="XMLID_115_" fill="#FFBD4A" fill-rule="nonzero"></path>
                    <path d="M28.6581059,18.1361502 L25.7977528,18.1361502 L25.7977528,27.4218645 C25.7977528,27.9566313 25.6771013,28.353341 25.4357945,28.6120054 C25.1944878,28.8706697 24.8825594,29 24.5,29 C24.111555,29 23.7952126,28.8692166 23.5509631,28.6076459 C23.3067136,28.3460752 23.1845907,27.9508187 23.1845907,27.4218645 L23.1845907,18.1361502 L20.3242376,18.1361502 C19.8769373,18.1361502 19.5444099,18.0387893 19.3266453,17.8440644 C19.1088807,17.6493395 19,17.3921322 19,17.0724346 C19,16.7411117 19.1132947,16.4795449 19.3398876,16.2877264 C19.5664805,16.0959078 19.8945939,16 20.3242376,16 L28.6581059,16 C29.1112917,16 29.4482332,16.0988141 29.6689406,16.2964453 C29.889648,16.4940766 30,16.7527371 30,17.0724346 C30,17.3921322 29.8881766,17.6493395 29.6645265,17.8440644 C29.4408764,18.0387893 29.1054062,18.1361502 28.6581059,18.1361502 Z" id="T" fill="#FFBD4A"></path>
                </g>
            </g>
            <g id="11" filter="url(#filter-11)" transform="translate(20.000000, 1745.000000)">
                <g id="element" fill-rule="nonzero">
                    <polygon id="Triangle" fill="#2B8ED1" transform="translate(68.075685, 85.465173) rotate(-30.000000) translate(-68.075685, -85.465173) " points="68.0756846 58.185173 99.7556848 112.745173 36.3956848 112.745173"></polygon>
                    <polygon id="Triangle" fill="#2F9AE0" points="54 62.6800002 108.56 31 108.56 94.36"></polygon>
                    <polygon id="Triangle" fill="#2A8FD1" transform="translate(27.280000, 62.680000) scale(-1, 1) translate(-27.280000, -62.680000) " points="0 62.6800002 54.56 31 54.56 94.36"></polygon>
                    <polygon id="Triangle" fill="#2585C2" transform="translate(41.075685, 85.465173) scale(-1, 1) rotate(-30.000000) translate(-41.075685, -85.465173) " points="41.0756847 58.185173 72.7556848 112.745173 9.39568479 112.745173"></polygon>
                    <polygon id="Triangle" fill="#2F9AE0" transform="translate(41.075685, 39.465173) rotate(150.000000) translate(-41.075685, -39.465173) " points="41.0756847 12.185173 72.7556848 66.745173 9.39568479 66.745173"></polygon>
                    <polygon id="Triangle" fill="#209BF2" transform="translate(68.075685, 39.465173) scale(-1, 1) rotate(150.000000) translate(-68.075685, -39.465173) " points="68.0756848 12.185173 99.7556848 66.745173 36.3956848 66.745173"></polygon>
                </g>
                <text id="January-2019-TGE" font-family="Montserrat-Regular, Montserrat" font-size="16" font-weight="normal">
                    <tspan x="120" y="55" fill="#FFBD4A">January 2019</tspan>
                    <tspan x="227.296" y="55" fill="#FFFFFF"></tspan>
                    <tspan x="120" y="74" fill="#FFFFFF">TGE</tspan>
                </text>
                <g id="power-button" transform="translate(35.000000, 40.000000)" fill="#FFBD4A" fill-rule="nonzero">
                    <path d="M27.1423894,6.65462146 C26.2289381,6.30867212 25.2061062,6.76154646 24.8569911,7.66659342 C24.5078761,8.57146496 24.9649558,9.58571754 25.8778761,9.93175458 C32.1340708,12.303139 36.460177,18.2805014 36.460177,25.1763313 C36.460177,34.1725051 29.0761947,41.4913862 20,41.4913862 C10.9238053,41.4913862 3.53982301,34.1725051 3.53982301,25.1763313 C3.53982301,18.2767297 7.86796458,12.3027005 14.1215044,9.93201773 C15.0345133,9.58589296 15.4915044,8.57164038 15.1423894,7.66676885 C14.7930974,6.76180962 13.769646,6.30893527 12.8569911,6.65488462 C5.2376106,9.54343873 0,16.8163568 0,25.1763313 C0,36.133908 8.94601771,45 20,45 C31.0550442,45 40,36.1328554 40,25.1763313 C40,16.8126728 34.759115,9.54185985 27.1423894,6.65462146 Z" id="Shape"></path>
                    <path d="M20,0 C19.0348155,0 18.2524272,0.788496519 18.2524272,1.76121626 L18.2524272,19.0080145 C18.2524272,19.9807343 19.0348155,20.7692308 20,20.7692308 C20.9651845,20.7692308 21.7475728,19.9806462 21.7475728,19.0080145 L21.7475728,1.76121626 C21.7475728,0.788496519 20.9651845,0 20,0 Z" id="Shape"></path>
                </g>
            </g>
        </g>
    </g>
</svg>