<svg xmlns="http://www.w3.org/2000/svg" xmlns:xlink="http://www.w3.org/1999/xlink" width="64" height="66" viewBox="0 0 64 66"><defs><path id="wdwda" d="M308 1670c-10.5 0-19-9.85-19-22s8.5-22 19-22 19 9.85 19 22-8.5 22-19 22"/><path id="wdwdb" d="M308 1662c-6.63 0-12-6.27-12-14s5.37-14 12-14 12 6.27 12 14-5.37 14-12 14"/><path id="wdwdc" d="M288.58 1648c0 1.55.14 3.06.4 4.52h-4.59c-.11-.67-.2-1.35-.27-2.04h4.42c-.05-.58-.08-1.16-.1-1.75h-4.43a26.35 26.35 0 0 1 .56-6.12h4.58c-.17.76-.3 1.54-.39 2.33h-4.33c-.07.58-.11 1.16-.15 1.75h4.33c-.02.43-.03.87-.03 1.31zm14.13-22c.77 0 1.54.06 2.29.17a16.7 16.7 0 0 0-6.57 2.45h-3.97c-.77.52-1.52 1.1-2.23 1.75h3.87c-.7.62-1.38 1.3-2 2.04h-4.35c-.43.56-.83 1.14-1.2 1.75h4.2a23.3 23.3 0 0 0-3.16 6.7H285c.2-.7.43-1.38.7-2.05v.01h4.42c.21-.9.44-1.77.68-2.62h-3.9c3.33-6.13 9.16-10.2 15.8-10.2zm2.29 43.83a16.14 16.14 0 0 1-11.6-2.74h4.5l-.53-.44a16.9 16.9 0 0 0 7.63 3.18zm-15.74-6.53h4.1c-.39-.56-.76-1.14-1.12-1.75h-4.27a23.53 23.53 0 0 1-3.2-7.29h4.58c.2.8.44 1.58.71 2.34h-4.36c.2.6.4 1.17.63 1.74h4.45a21.61 21.61 0 0 0 5 7h-4.4c.44.45.9.88 1.36 1.28a19.77 19.77 0 0 1-3.48-3.32z"/><path id="wdwdd" d="M307.5 1666c-.55 0-1.1-.03-1.64-.1a.8.8 0 0 1-.68-.89.8.8 0 0 1 .87-.7c.48.06.96.1 1.45.1.43 0 .81.35.81.8 0 .43-.31.79-.74.79zm3.88-1.38a.8.8 0 0 1 .46-1.03c.45-.17.9-.38 1.33-.6a.77.77 0 0 1 1.05.34c.2.4.05.88-.34 1.08-.48.25-.99.48-1.5.68a.78.78 0 0 1-1-.47zm-10.2-.18c-.48-.25-.96-.53-1.41-.84a.81.81 0 0 1-.23-1.1.77.77 0 0 1 1.08-.23c.41.27.84.52 1.27.75.38.2.54.68.34 1.07a.78.78 0 0 1-1.05.35zm15.52-2.99a.81.81 0 0 1 0-1.13c.33-.35.67-.72.98-1.12a.77.77 0 0 1 1.1-.11c.33.28.38.78.11 1.12-.34.43-.71.85-1.09 1.24a.77.77 0 0 1-1.1 0zm-20.54-1.18c-.34-.43-.67-.87-.97-1.33a.81.81 0 0 1 .2-1.11.77.77 0 0 1 1.1.21c.27.42.57.83.87 1.21.28.35.23.85-.1 1.13a.77.77 0 0 1-1.1-.11zm24.21-3.88a.8.8 0 0 1-.4-1.05c.2-.46.37-.94.53-1.42a.78.78 0 0 1 1-.5c.4.14.62.6.48 1.01-.17.52-.36 1.04-.58 1.54a.78.78 0 0 1-1.03.42zm-27.33-1.89c-.17-.52-.32-1.05-.45-1.58a.8.8 0 0 1 .56-.97c.42-.11.85.15.95.58.12.49.26.98.42 1.45a.8.8 0 0 1-.74 1.06.79.79 0 0 1-.74-.54zm29.06-4.17a.8.8 0 0 1-.72-.86c.04-.49.06-.98.06-1.47 0-.44.35-.82.78-.82.43 0 .78.33.78.77v.05c0 .53-.02 1.07-.06 1.6a.79.79 0 0 1-.84.73zm-30.1-2.31v-.02c0-.55.02-1.1.06-1.63.04-.44.41-.76.84-.73a.8.8 0 0 1 .72.86c-.04.5-.06 1-.06 1.5a.8.8 0 0 1-.78.8.78.78 0 0 1-.78-.78zm28.9-4.58c-.13-.5-.27-.98-.43-1.46a.8.8 0 0 1 .48-1.01c.41-.15.86.08 1 .5a20 20 0 0 1 .46 1.58.8.8 0 0 1-.76 1 .78.78 0 0 1-.76-.61zm-27.38-.9a.8.8 0 0 1-.49-1c.17-.53.37-1.04.58-1.55a.78.78 0 0 1 1.03-.4c.4.17.58.64.4 1.04-.2.46-.37.94-.53 1.42a.78.78 0 0 1-1 .5zm24.98-4.61a16.3 16.3 0 0 0-.88-1.2.81.81 0 0 1 .1-1.13.77.77 0 0 1 1.1.1c.34.43.67.87.97 1.33.24.37.15.87-.2 1.11a.77.77 0 0 1-1.1-.21zm-22.26-1.05a.81.81 0 0 1-.1-1.12 17 17 0 0 1 1.08-1.23c.3-.32.8-.32 1.1 0 .31.3.31.8 0 1.12-.33.35-.66.73-.98 1.12a.77.77 0 0 1-1.1.11zm18.11-3.16c-.4-.28-.83-.53-1.27-.75a.8.8 0 0 1-.34-1.07c.2-.4.66-.56 1.05-.36.48.25.96.53 1.41.84.37.24.47.73.23 1.1a.77.77 0 0 1-1.08.24zm-13.54-1.07a.8.8 0 0 1 .34-1.08c.49-.25.99-.48 1.5-.67.4-.16.85.05 1 .47a.8.8 0 0 1-.46 1.03c-.45.17-.9.37-1.33.6a.78.78 0 0 1-1.05-.35zm8.11-.97c-.47-.05-.95-.08-1.42-.08a.8.8 0 0 1-.8-.8c0-.44.34-.8.77-.8h.03c.53 0 1.07.03 1.6.1a.8.8 0 0 1 .69.88.79.79 0 0 1-.87.7z"/><path id="wdwde" d="M312.66 1644.14h-2.86v9.28c0 .54-.12.93-.36 1.2-.25.25-.56.38-.94.38-.39 0-.7-.13-.95-.4-.24-.25-.37-.65-.37-1.18v-9.28h-2.86c-.44 0-.78-.1-1-.3a.99.99 0 0 1-.32-.77c0-.33.11-.59.34-.78.23-.2.55-.29.98-.29h8.34c.45 0 .79.1 1 .3a1 1 0 0 1 .34.77c0 .32-.11.58-.34.77-.22.2-.55.3-1 .3z"/></defs><g><g transform="translate(-274 -1620)"><g><use fill="#fff" fill-opacity="0" stroke="#ffbd4a" stroke-miterlimit="50" stroke-width="2" xlink:href="#wdwda"/></g><g><use fill="#fff" fill-opacity="0" stroke="#ffbd4a" stroke-miterlimit="50" stroke-width="2" xlink:href="#wdwdb"/></g><g><use fill="#ffbd4a" xlink:href="#wdwdc"/></g><g><use fill="#ffbd4a" xlink:href="#wdwdd"/></g><g><use fill="#ffbd4a" xlink:href="#wdwde"/></g></g></g></svg>