                        <svg viewBox="0 0 174 151" version="1.1" xmlns="http://www.w3.org/2000/svg" xmlns:xlink="http://www.w3.org/1999/xlink">
                            <g id="Artboard" stroke="none" stroke-width="1" fill="none" fill-rule="evenodd" transform="translate(-619.000000, -82.000000)">
                                <g id="Telegram-chat" transform="translate(625.000000, 84.000000)" fill-rule="nonzero">
                                    <g id="Group" fill="#FFFFFF" stroke="#FFFFFF" stroke-width="4">
                                        <path d="M82.8309615,0 C65.7311298,0 49.9118379,4.42677141 36.7217912,12.0566142 C34.4869328,13.3485684 32.2910261,14.6453979 30.2217128,16.1128629 C28.225434,17.5364502 26.3947003,19.0916705 24.5639667,20.6663921 C24.495801,20.7200203 24.3886836,20.7297709 24.320518,20.7882745 C9.34355838,33.6444377 0,51.361274 0,70.9746015 C0,90.3051616 9.12445461,107.739231 23.7216344,120.541765 C23.7898,121.063422 23.8384897,121.628957 23.8384897,122.018981 C23.8384897,133.339425 15.1425047,142.563491 4.09480594,142.685373 C9.66213953,145.021088 15.6355455,146.232233 21.6717969,146.249217 C32.3348469,146.249217 41.9413298,142.280723 49.7268169,136.040341 C60.3144034,140.015557 71.528388,142.056512 82.8358305,142.06621 C128.545745,142.06621 165.549937,110.206132 165.549937,70.9697262 C165.549937,31.7333206 128.540876,0 82.8309615,0 Z" id="Shape"></path>
                                    </g>
                                    <g id="telegram-(1)" transform="translate(15.000000, 25.000000)">
                                        <path d="M44.4843681,90 C41.0330407,90 41.3274336,89.98463 40.0884956,86.6964063 L30,53.2809432 L92.6548673,14 L100,15.9551601 L93.8938053,32.6628916 L44.4843681,90 Z" id="path2993" stroke="#333333" stroke-width="3" fill="#FFFFFF"></path>
                                        <path d="M43,90 C45.6428571,90 46.7880952,88.7627907 48.2857143,87.3488372 C50.5761905,85.1395349 80,56.4186047 80,56.4186047 L61.9404762,52 L45.202381,62.6046512 L43,89.1162791 L43,90 Z" id="path2989" fill="#333333"></path>
                                        <path d="M45.3925929,64.0388303 L88.4089755,95.689224 C93.2972008,98.348921 96.8522737,97.0190725 98.0965492,91.1677392 L115.605283,8.89444676 C117.38282,1.71326498 112.850102,-1.47837136 108.13963,0.649386203 L5.39802238,40.1902143 C-1.62324667,43.0272243 -1.53436985,46.9281132 4.15374685,48.6125879 L30.5501634,56.8576485 L91.6085411,18.4693558 C94.4525995,16.6962245 97.1189042,17.6714467 94.9858604,19.6218911 L45.3925929,64.0388303 Z" id="path2991" fill="#333333"></path>
                                    </g>
                                </g>
                            </g>
</svg>